G04 #@! TF.GenerationSoftware,KiCad,Pcbnew,5.1.3-ffb9f22~84~ubuntu16.04.1*
G04 #@! TF.CreationDate,2019-07-29T14:43:33+10:00*
G04 #@! TF.ProjectId,tankmon-pcb,74616e6b-6d6f-46e2-9d70-63622e6b6963,1a*
G04 #@! TF.SameCoordinates,Original*
G04 #@! TF.FileFunction,Paste,Bot*
G04 #@! TF.FilePolarity,Positive*
%FSLAX46Y46*%
G04 Gerber Fmt 4.6, Leading zero omitted, Abs format (unit mm)*
G04 Created by KiCad (PCBNEW 5.1.3-ffb9f22~84~ubuntu16.04.1) date 2019-07-29 14:43:33*
%MOMM*%
%LPD*%
G04 APERTURE LIST*
%ADD10C,0.100000*%
%ADD11C,0.875000*%
%ADD12R,0.900000X0.800000*%
G04 APERTURE END LIST*
D10*
G36*
X152106691Y-98840053D02*
G01*
X152127926Y-98843203D01*
X152148750Y-98848419D01*
X152168962Y-98855651D01*
X152188368Y-98864830D01*
X152206781Y-98875866D01*
X152224024Y-98888654D01*
X152239930Y-98903070D01*
X152254346Y-98918976D01*
X152267134Y-98936219D01*
X152278170Y-98954632D01*
X152287349Y-98974038D01*
X152294581Y-98994250D01*
X152299797Y-99015074D01*
X152302947Y-99036309D01*
X152304000Y-99057750D01*
X152304000Y-99570250D01*
X152302947Y-99591691D01*
X152299797Y-99612926D01*
X152294581Y-99633750D01*
X152287349Y-99653962D01*
X152278170Y-99673368D01*
X152267134Y-99691781D01*
X152254346Y-99709024D01*
X152239930Y-99724930D01*
X152224024Y-99739346D01*
X152206781Y-99752134D01*
X152188368Y-99763170D01*
X152168962Y-99772349D01*
X152148750Y-99779581D01*
X152127926Y-99784797D01*
X152106691Y-99787947D01*
X152085250Y-99789000D01*
X151647750Y-99789000D01*
X151626309Y-99787947D01*
X151605074Y-99784797D01*
X151584250Y-99779581D01*
X151564038Y-99772349D01*
X151544632Y-99763170D01*
X151526219Y-99752134D01*
X151508976Y-99739346D01*
X151493070Y-99724930D01*
X151478654Y-99709024D01*
X151465866Y-99691781D01*
X151454830Y-99673368D01*
X151445651Y-99653962D01*
X151438419Y-99633750D01*
X151433203Y-99612926D01*
X151430053Y-99591691D01*
X151429000Y-99570250D01*
X151429000Y-99057750D01*
X151430053Y-99036309D01*
X151433203Y-99015074D01*
X151438419Y-98994250D01*
X151445651Y-98974038D01*
X151454830Y-98954632D01*
X151465866Y-98936219D01*
X151478654Y-98918976D01*
X151493070Y-98903070D01*
X151508976Y-98888654D01*
X151526219Y-98875866D01*
X151544632Y-98864830D01*
X151564038Y-98855651D01*
X151584250Y-98848419D01*
X151605074Y-98843203D01*
X151626309Y-98840053D01*
X151647750Y-98839000D01*
X152085250Y-98839000D01*
X152106691Y-98840053D01*
X152106691Y-98840053D01*
G37*
D11*
X151866500Y-99314000D03*
D10*
G36*
X153681691Y-98840053D02*
G01*
X153702926Y-98843203D01*
X153723750Y-98848419D01*
X153743962Y-98855651D01*
X153763368Y-98864830D01*
X153781781Y-98875866D01*
X153799024Y-98888654D01*
X153814930Y-98903070D01*
X153829346Y-98918976D01*
X153842134Y-98936219D01*
X153853170Y-98954632D01*
X153862349Y-98974038D01*
X153869581Y-98994250D01*
X153874797Y-99015074D01*
X153877947Y-99036309D01*
X153879000Y-99057750D01*
X153879000Y-99570250D01*
X153877947Y-99591691D01*
X153874797Y-99612926D01*
X153869581Y-99633750D01*
X153862349Y-99653962D01*
X153853170Y-99673368D01*
X153842134Y-99691781D01*
X153829346Y-99709024D01*
X153814930Y-99724930D01*
X153799024Y-99739346D01*
X153781781Y-99752134D01*
X153763368Y-99763170D01*
X153743962Y-99772349D01*
X153723750Y-99779581D01*
X153702926Y-99784797D01*
X153681691Y-99787947D01*
X153660250Y-99789000D01*
X153222750Y-99789000D01*
X153201309Y-99787947D01*
X153180074Y-99784797D01*
X153159250Y-99779581D01*
X153139038Y-99772349D01*
X153119632Y-99763170D01*
X153101219Y-99752134D01*
X153083976Y-99739346D01*
X153068070Y-99724930D01*
X153053654Y-99709024D01*
X153040866Y-99691781D01*
X153029830Y-99673368D01*
X153020651Y-99653962D01*
X153013419Y-99633750D01*
X153008203Y-99612926D01*
X153005053Y-99591691D01*
X153004000Y-99570250D01*
X153004000Y-99057750D01*
X153005053Y-99036309D01*
X153008203Y-99015074D01*
X153013419Y-98994250D01*
X153020651Y-98974038D01*
X153029830Y-98954632D01*
X153040866Y-98936219D01*
X153053654Y-98918976D01*
X153068070Y-98903070D01*
X153083976Y-98888654D01*
X153101219Y-98875866D01*
X153119632Y-98864830D01*
X153139038Y-98855651D01*
X153159250Y-98848419D01*
X153180074Y-98843203D01*
X153201309Y-98840053D01*
X153222750Y-98839000D01*
X153660250Y-98839000D01*
X153681691Y-98840053D01*
X153681691Y-98840053D01*
G37*
D11*
X153441500Y-99314000D03*
D10*
G36*
X136421691Y-99665053D02*
G01*
X136442926Y-99668203D01*
X136463750Y-99673419D01*
X136483962Y-99680651D01*
X136503368Y-99689830D01*
X136521781Y-99700866D01*
X136539024Y-99713654D01*
X136554930Y-99728070D01*
X136569346Y-99743976D01*
X136582134Y-99761219D01*
X136593170Y-99779632D01*
X136602349Y-99799038D01*
X136609581Y-99819250D01*
X136614797Y-99840074D01*
X136617947Y-99861309D01*
X136619000Y-99882750D01*
X136619000Y-100320250D01*
X136617947Y-100341691D01*
X136614797Y-100362926D01*
X136609581Y-100383750D01*
X136602349Y-100403962D01*
X136593170Y-100423368D01*
X136582134Y-100441781D01*
X136569346Y-100459024D01*
X136554930Y-100474930D01*
X136539024Y-100489346D01*
X136521781Y-100502134D01*
X136503368Y-100513170D01*
X136483962Y-100522349D01*
X136463750Y-100529581D01*
X136442926Y-100534797D01*
X136421691Y-100537947D01*
X136400250Y-100539000D01*
X135887750Y-100539000D01*
X135866309Y-100537947D01*
X135845074Y-100534797D01*
X135824250Y-100529581D01*
X135804038Y-100522349D01*
X135784632Y-100513170D01*
X135766219Y-100502134D01*
X135748976Y-100489346D01*
X135733070Y-100474930D01*
X135718654Y-100459024D01*
X135705866Y-100441781D01*
X135694830Y-100423368D01*
X135685651Y-100403962D01*
X135678419Y-100383750D01*
X135673203Y-100362926D01*
X135670053Y-100341691D01*
X135669000Y-100320250D01*
X135669000Y-99882750D01*
X135670053Y-99861309D01*
X135673203Y-99840074D01*
X135678419Y-99819250D01*
X135685651Y-99799038D01*
X135694830Y-99779632D01*
X135705866Y-99761219D01*
X135718654Y-99743976D01*
X135733070Y-99728070D01*
X135748976Y-99713654D01*
X135766219Y-99700866D01*
X135784632Y-99689830D01*
X135804038Y-99680651D01*
X135824250Y-99673419D01*
X135845074Y-99668203D01*
X135866309Y-99665053D01*
X135887750Y-99664000D01*
X136400250Y-99664000D01*
X136421691Y-99665053D01*
X136421691Y-99665053D01*
G37*
D11*
X136144000Y-100101500D03*
D10*
G36*
X136421691Y-98090053D02*
G01*
X136442926Y-98093203D01*
X136463750Y-98098419D01*
X136483962Y-98105651D01*
X136503368Y-98114830D01*
X136521781Y-98125866D01*
X136539024Y-98138654D01*
X136554930Y-98153070D01*
X136569346Y-98168976D01*
X136582134Y-98186219D01*
X136593170Y-98204632D01*
X136602349Y-98224038D01*
X136609581Y-98244250D01*
X136614797Y-98265074D01*
X136617947Y-98286309D01*
X136619000Y-98307750D01*
X136619000Y-98745250D01*
X136617947Y-98766691D01*
X136614797Y-98787926D01*
X136609581Y-98808750D01*
X136602349Y-98828962D01*
X136593170Y-98848368D01*
X136582134Y-98866781D01*
X136569346Y-98884024D01*
X136554930Y-98899930D01*
X136539024Y-98914346D01*
X136521781Y-98927134D01*
X136503368Y-98938170D01*
X136483962Y-98947349D01*
X136463750Y-98954581D01*
X136442926Y-98959797D01*
X136421691Y-98962947D01*
X136400250Y-98964000D01*
X135887750Y-98964000D01*
X135866309Y-98962947D01*
X135845074Y-98959797D01*
X135824250Y-98954581D01*
X135804038Y-98947349D01*
X135784632Y-98938170D01*
X135766219Y-98927134D01*
X135748976Y-98914346D01*
X135733070Y-98899930D01*
X135718654Y-98884024D01*
X135705866Y-98866781D01*
X135694830Y-98848368D01*
X135685651Y-98828962D01*
X135678419Y-98808750D01*
X135673203Y-98787926D01*
X135670053Y-98766691D01*
X135669000Y-98745250D01*
X135669000Y-98307750D01*
X135670053Y-98286309D01*
X135673203Y-98265074D01*
X135678419Y-98244250D01*
X135685651Y-98224038D01*
X135694830Y-98204632D01*
X135705866Y-98186219D01*
X135718654Y-98168976D01*
X135733070Y-98153070D01*
X135748976Y-98138654D01*
X135766219Y-98125866D01*
X135784632Y-98114830D01*
X135804038Y-98105651D01*
X135824250Y-98098419D01*
X135845074Y-98093203D01*
X135866309Y-98090053D01*
X135887750Y-98089000D01*
X136400250Y-98089000D01*
X136421691Y-98090053D01*
X136421691Y-98090053D01*
G37*
D11*
X136144000Y-98526500D03*
D10*
G36*
X152106691Y-103920053D02*
G01*
X152127926Y-103923203D01*
X152148750Y-103928419D01*
X152168962Y-103935651D01*
X152188368Y-103944830D01*
X152206781Y-103955866D01*
X152224024Y-103968654D01*
X152239930Y-103983070D01*
X152254346Y-103998976D01*
X152267134Y-104016219D01*
X152278170Y-104034632D01*
X152287349Y-104054038D01*
X152294581Y-104074250D01*
X152299797Y-104095074D01*
X152302947Y-104116309D01*
X152304000Y-104137750D01*
X152304000Y-104650250D01*
X152302947Y-104671691D01*
X152299797Y-104692926D01*
X152294581Y-104713750D01*
X152287349Y-104733962D01*
X152278170Y-104753368D01*
X152267134Y-104771781D01*
X152254346Y-104789024D01*
X152239930Y-104804930D01*
X152224024Y-104819346D01*
X152206781Y-104832134D01*
X152188368Y-104843170D01*
X152168962Y-104852349D01*
X152148750Y-104859581D01*
X152127926Y-104864797D01*
X152106691Y-104867947D01*
X152085250Y-104869000D01*
X151647750Y-104869000D01*
X151626309Y-104867947D01*
X151605074Y-104864797D01*
X151584250Y-104859581D01*
X151564038Y-104852349D01*
X151544632Y-104843170D01*
X151526219Y-104832134D01*
X151508976Y-104819346D01*
X151493070Y-104804930D01*
X151478654Y-104789024D01*
X151465866Y-104771781D01*
X151454830Y-104753368D01*
X151445651Y-104733962D01*
X151438419Y-104713750D01*
X151433203Y-104692926D01*
X151430053Y-104671691D01*
X151429000Y-104650250D01*
X151429000Y-104137750D01*
X151430053Y-104116309D01*
X151433203Y-104095074D01*
X151438419Y-104074250D01*
X151445651Y-104054038D01*
X151454830Y-104034632D01*
X151465866Y-104016219D01*
X151478654Y-103998976D01*
X151493070Y-103983070D01*
X151508976Y-103968654D01*
X151526219Y-103955866D01*
X151544632Y-103944830D01*
X151564038Y-103935651D01*
X151584250Y-103928419D01*
X151605074Y-103923203D01*
X151626309Y-103920053D01*
X151647750Y-103919000D01*
X152085250Y-103919000D01*
X152106691Y-103920053D01*
X152106691Y-103920053D01*
G37*
D11*
X151866500Y-104394000D03*
D10*
G36*
X153681691Y-103920053D02*
G01*
X153702926Y-103923203D01*
X153723750Y-103928419D01*
X153743962Y-103935651D01*
X153763368Y-103944830D01*
X153781781Y-103955866D01*
X153799024Y-103968654D01*
X153814930Y-103983070D01*
X153829346Y-103998976D01*
X153842134Y-104016219D01*
X153853170Y-104034632D01*
X153862349Y-104054038D01*
X153869581Y-104074250D01*
X153874797Y-104095074D01*
X153877947Y-104116309D01*
X153879000Y-104137750D01*
X153879000Y-104650250D01*
X153877947Y-104671691D01*
X153874797Y-104692926D01*
X153869581Y-104713750D01*
X153862349Y-104733962D01*
X153853170Y-104753368D01*
X153842134Y-104771781D01*
X153829346Y-104789024D01*
X153814930Y-104804930D01*
X153799024Y-104819346D01*
X153781781Y-104832134D01*
X153763368Y-104843170D01*
X153743962Y-104852349D01*
X153723750Y-104859581D01*
X153702926Y-104864797D01*
X153681691Y-104867947D01*
X153660250Y-104869000D01*
X153222750Y-104869000D01*
X153201309Y-104867947D01*
X153180074Y-104864797D01*
X153159250Y-104859581D01*
X153139038Y-104852349D01*
X153119632Y-104843170D01*
X153101219Y-104832134D01*
X153083976Y-104819346D01*
X153068070Y-104804930D01*
X153053654Y-104789024D01*
X153040866Y-104771781D01*
X153029830Y-104753368D01*
X153020651Y-104733962D01*
X153013419Y-104713750D01*
X153008203Y-104692926D01*
X153005053Y-104671691D01*
X153004000Y-104650250D01*
X153004000Y-104137750D01*
X153005053Y-104116309D01*
X153008203Y-104095074D01*
X153013419Y-104074250D01*
X153020651Y-104054038D01*
X153029830Y-104034632D01*
X153040866Y-104016219D01*
X153053654Y-103998976D01*
X153068070Y-103983070D01*
X153083976Y-103968654D01*
X153101219Y-103955866D01*
X153119632Y-103944830D01*
X153139038Y-103935651D01*
X153159250Y-103928419D01*
X153180074Y-103923203D01*
X153201309Y-103920053D01*
X153222750Y-103919000D01*
X153660250Y-103919000D01*
X153681691Y-103920053D01*
X153681691Y-103920053D01*
G37*
D11*
X153441500Y-104394000D03*
D10*
G36*
X136421691Y-80792553D02*
G01*
X136442926Y-80795703D01*
X136463750Y-80800919D01*
X136483962Y-80808151D01*
X136503368Y-80817330D01*
X136521781Y-80828366D01*
X136539024Y-80841154D01*
X136554930Y-80855570D01*
X136569346Y-80871476D01*
X136582134Y-80888719D01*
X136593170Y-80907132D01*
X136602349Y-80926538D01*
X136609581Y-80946750D01*
X136614797Y-80967574D01*
X136617947Y-80988809D01*
X136619000Y-81010250D01*
X136619000Y-81447750D01*
X136617947Y-81469191D01*
X136614797Y-81490426D01*
X136609581Y-81511250D01*
X136602349Y-81531462D01*
X136593170Y-81550868D01*
X136582134Y-81569281D01*
X136569346Y-81586524D01*
X136554930Y-81602430D01*
X136539024Y-81616846D01*
X136521781Y-81629634D01*
X136503368Y-81640670D01*
X136483962Y-81649849D01*
X136463750Y-81657081D01*
X136442926Y-81662297D01*
X136421691Y-81665447D01*
X136400250Y-81666500D01*
X135887750Y-81666500D01*
X135866309Y-81665447D01*
X135845074Y-81662297D01*
X135824250Y-81657081D01*
X135804038Y-81649849D01*
X135784632Y-81640670D01*
X135766219Y-81629634D01*
X135748976Y-81616846D01*
X135733070Y-81602430D01*
X135718654Y-81586524D01*
X135705866Y-81569281D01*
X135694830Y-81550868D01*
X135685651Y-81531462D01*
X135678419Y-81511250D01*
X135673203Y-81490426D01*
X135670053Y-81469191D01*
X135669000Y-81447750D01*
X135669000Y-81010250D01*
X135670053Y-80988809D01*
X135673203Y-80967574D01*
X135678419Y-80946750D01*
X135685651Y-80926538D01*
X135694830Y-80907132D01*
X135705866Y-80888719D01*
X135718654Y-80871476D01*
X135733070Y-80855570D01*
X135748976Y-80841154D01*
X135766219Y-80828366D01*
X135784632Y-80817330D01*
X135804038Y-80808151D01*
X135824250Y-80800919D01*
X135845074Y-80795703D01*
X135866309Y-80792553D01*
X135887750Y-80791500D01*
X136400250Y-80791500D01*
X136421691Y-80792553D01*
X136421691Y-80792553D01*
G37*
D11*
X136144000Y-81229000D03*
D10*
G36*
X136421691Y-82367553D02*
G01*
X136442926Y-82370703D01*
X136463750Y-82375919D01*
X136483962Y-82383151D01*
X136503368Y-82392330D01*
X136521781Y-82403366D01*
X136539024Y-82416154D01*
X136554930Y-82430570D01*
X136569346Y-82446476D01*
X136582134Y-82463719D01*
X136593170Y-82482132D01*
X136602349Y-82501538D01*
X136609581Y-82521750D01*
X136614797Y-82542574D01*
X136617947Y-82563809D01*
X136619000Y-82585250D01*
X136619000Y-83022750D01*
X136617947Y-83044191D01*
X136614797Y-83065426D01*
X136609581Y-83086250D01*
X136602349Y-83106462D01*
X136593170Y-83125868D01*
X136582134Y-83144281D01*
X136569346Y-83161524D01*
X136554930Y-83177430D01*
X136539024Y-83191846D01*
X136521781Y-83204634D01*
X136503368Y-83215670D01*
X136483962Y-83224849D01*
X136463750Y-83232081D01*
X136442926Y-83237297D01*
X136421691Y-83240447D01*
X136400250Y-83241500D01*
X135887750Y-83241500D01*
X135866309Y-83240447D01*
X135845074Y-83237297D01*
X135824250Y-83232081D01*
X135804038Y-83224849D01*
X135784632Y-83215670D01*
X135766219Y-83204634D01*
X135748976Y-83191846D01*
X135733070Y-83177430D01*
X135718654Y-83161524D01*
X135705866Y-83144281D01*
X135694830Y-83125868D01*
X135685651Y-83106462D01*
X135678419Y-83086250D01*
X135673203Y-83065426D01*
X135670053Y-83044191D01*
X135669000Y-83022750D01*
X135669000Y-82585250D01*
X135670053Y-82563809D01*
X135673203Y-82542574D01*
X135678419Y-82521750D01*
X135685651Y-82501538D01*
X135694830Y-82482132D01*
X135705866Y-82463719D01*
X135718654Y-82446476D01*
X135733070Y-82430570D01*
X135748976Y-82416154D01*
X135766219Y-82403366D01*
X135784632Y-82392330D01*
X135804038Y-82383151D01*
X135824250Y-82375919D01*
X135845074Y-82370703D01*
X135866309Y-82367553D01*
X135887750Y-82366500D01*
X136400250Y-82366500D01*
X136421691Y-82367553D01*
X136421691Y-82367553D01*
G37*
D11*
X136144000Y-82804000D03*
D10*
G36*
X152106691Y-88680053D02*
G01*
X152127926Y-88683203D01*
X152148750Y-88688419D01*
X152168962Y-88695651D01*
X152188368Y-88704830D01*
X152206781Y-88715866D01*
X152224024Y-88728654D01*
X152239930Y-88743070D01*
X152254346Y-88758976D01*
X152267134Y-88776219D01*
X152278170Y-88794632D01*
X152287349Y-88814038D01*
X152294581Y-88834250D01*
X152299797Y-88855074D01*
X152302947Y-88876309D01*
X152304000Y-88897750D01*
X152304000Y-89410250D01*
X152302947Y-89431691D01*
X152299797Y-89452926D01*
X152294581Y-89473750D01*
X152287349Y-89493962D01*
X152278170Y-89513368D01*
X152267134Y-89531781D01*
X152254346Y-89549024D01*
X152239930Y-89564930D01*
X152224024Y-89579346D01*
X152206781Y-89592134D01*
X152188368Y-89603170D01*
X152168962Y-89612349D01*
X152148750Y-89619581D01*
X152127926Y-89624797D01*
X152106691Y-89627947D01*
X152085250Y-89629000D01*
X151647750Y-89629000D01*
X151626309Y-89627947D01*
X151605074Y-89624797D01*
X151584250Y-89619581D01*
X151564038Y-89612349D01*
X151544632Y-89603170D01*
X151526219Y-89592134D01*
X151508976Y-89579346D01*
X151493070Y-89564930D01*
X151478654Y-89549024D01*
X151465866Y-89531781D01*
X151454830Y-89513368D01*
X151445651Y-89493962D01*
X151438419Y-89473750D01*
X151433203Y-89452926D01*
X151430053Y-89431691D01*
X151429000Y-89410250D01*
X151429000Y-88897750D01*
X151430053Y-88876309D01*
X151433203Y-88855074D01*
X151438419Y-88834250D01*
X151445651Y-88814038D01*
X151454830Y-88794632D01*
X151465866Y-88776219D01*
X151478654Y-88758976D01*
X151493070Y-88743070D01*
X151508976Y-88728654D01*
X151526219Y-88715866D01*
X151544632Y-88704830D01*
X151564038Y-88695651D01*
X151584250Y-88688419D01*
X151605074Y-88683203D01*
X151626309Y-88680053D01*
X151647750Y-88679000D01*
X152085250Y-88679000D01*
X152106691Y-88680053D01*
X152106691Y-88680053D01*
G37*
D11*
X151866500Y-89154000D03*
D10*
G36*
X153681691Y-88680053D02*
G01*
X153702926Y-88683203D01*
X153723750Y-88688419D01*
X153743962Y-88695651D01*
X153763368Y-88704830D01*
X153781781Y-88715866D01*
X153799024Y-88728654D01*
X153814930Y-88743070D01*
X153829346Y-88758976D01*
X153842134Y-88776219D01*
X153853170Y-88794632D01*
X153862349Y-88814038D01*
X153869581Y-88834250D01*
X153874797Y-88855074D01*
X153877947Y-88876309D01*
X153879000Y-88897750D01*
X153879000Y-89410250D01*
X153877947Y-89431691D01*
X153874797Y-89452926D01*
X153869581Y-89473750D01*
X153862349Y-89493962D01*
X153853170Y-89513368D01*
X153842134Y-89531781D01*
X153829346Y-89549024D01*
X153814930Y-89564930D01*
X153799024Y-89579346D01*
X153781781Y-89592134D01*
X153763368Y-89603170D01*
X153743962Y-89612349D01*
X153723750Y-89619581D01*
X153702926Y-89624797D01*
X153681691Y-89627947D01*
X153660250Y-89629000D01*
X153222750Y-89629000D01*
X153201309Y-89627947D01*
X153180074Y-89624797D01*
X153159250Y-89619581D01*
X153139038Y-89612349D01*
X153119632Y-89603170D01*
X153101219Y-89592134D01*
X153083976Y-89579346D01*
X153068070Y-89564930D01*
X153053654Y-89549024D01*
X153040866Y-89531781D01*
X153029830Y-89513368D01*
X153020651Y-89493962D01*
X153013419Y-89473750D01*
X153008203Y-89452926D01*
X153005053Y-89431691D01*
X153004000Y-89410250D01*
X153004000Y-88897750D01*
X153005053Y-88876309D01*
X153008203Y-88855074D01*
X153013419Y-88834250D01*
X153020651Y-88814038D01*
X153029830Y-88794632D01*
X153040866Y-88776219D01*
X153053654Y-88758976D01*
X153068070Y-88743070D01*
X153083976Y-88728654D01*
X153101219Y-88715866D01*
X153119632Y-88704830D01*
X153139038Y-88695651D01*
X153159250Y-88688419D01*
X153180074Y-88683203D01*
X153201309Y-88680053D01*
X153222750Y-88679000D01*
X153660250Y-88679000D01*
X153681691Y-88680053D01*
X153681691Y-88680053D01*
G37*
D11*
X153441500Y-89154000D03*
D10*
G36*
X136421691Y-95372553D02*
G01*
X136442926Y-95375703D01*
X136463750Y-95380919D01*
X136483962Y-95388151D01*
X136503368Y-95397330D01*
X136521781Y-95408366D01*
X136539024Y-95421154D01*
X136554930Y-95435570D01*
X136569346Y-95451476D01*
X136582134Y-95468719D01*
X136593170Y-95487132D01*
X136602349Y-95506538D01*
X136609581Y-95526750D01*
X136614797Y-95547574D01*
X136617947Y-95568809D01*
X136619000Y-95590250D01*
X136619000Y-96027750D01*
X136617947Y-96049191D01*
X136614797Y-96070426D01*
X136609581Y-96091250D01*
X136602349Y-96111462D01*
X136593170Y-96130868D01*
X136582134Y-96149281D01*
X136569346Y-96166524D01*
X136554930Y-96182430D01*
X136539024Y-96196846D01*
X136521781Y-96209634D01*
X136503368Y-96220670D01*
X136483962Y-96229849D01*
X136463750Y-96237081D01*
X136442926Y-96242297D01*
X136421691Y-96245447D01*
X136400250Y-96246500D01*
X135887750Y-96246500D01*
X135866309Y-96245447D01*
X135845074Y-96242297D01*
X135824250Y-96237081D01*
X135804038Y-96229849D01*
X135784632Y-96220670D01*
X135766219Y-96209634D01*
X135748976Y-96196846D01*
X135733070Y-96182430D01*
X135718654Y-96166524D01*
X135705866Y-96149281D01*
X135694830Y-96130868D01*
X135685651Y-96111462D01*
X135678419Y-96091250D01*
X135673203Y-96070426D01*
X135670053Y-96049191D01*
X135669000Y-96027750D01*
X135669000Y-95590250D01*
X135670053Y-95568809D01*
X135673203Y-95547574D01*
X135678419Y-95526750D01*
X135685651Y-95506538D01*
X135694830Y-95487132D01*
X135705866Y-95468719D01*
X135718654Y-95451476D01*
X135733070Y-95435570D01*
X135748976Y-95421154D01*
X135766219Y-95408366D01*
X135784632Y-95397330D01*
X135804038Y-95388151D01*
X135824250Y-95380919D01*
X135845074Y-95375703D01*
X135866309Y-95372553D01*
X135887750Y-95371500D01*
X136400250Y-95371500D01*
X136421691Y-95372553D01*
X136421691Y-95372553D01*
G37*
D11*
X136144000Y-95809000D03*
D10*
G36*
X136421691Y-93797553D02*
G01*
X136442926Y-93800703D01*
X136463750Y-93805919D01*
X136483962Y-93813151D01*
X136503368Y-93822330D01*
X136521781Y-93833366D01*
X136539024Y-93846154D01*
X136554930Y-93860570D01*
X136569346Y-93876476D01*
X136582134Y-93893719D01*
X136593170Y-93912132D01*
X136602349Y-93931538D01*
X136609581Y-93951750D01*
X136614797Y-93972574D01*
X136617947Y-93993809D01*
X136619000Y-94015250D01*
X136619000Y-94452750D01*
X136617947Y-94474191D01*
X136614797Y-94495426D01*
X136609581Y-94516250D01*
X136602349Y-94536462D01*
X136593170Y-94555868D01*
X136582134Y-94574281D01*
X136569346Y-94591524D01*
X136554930Y-94607430D01*
X136539024Y-94621846D01*
X136521781Y-94634634D01*
X136503368Y-94645670D01*
X136483962Y-94654849D01*
X136463750Y-94662081D01*
X136442926Y-94667297D01*
X136421691Y-94670447D01*
X136400250Y-94671500D01*
X135887750Y-94671500D01*
X135866309Y-94670447D01*
X135845074Y-94667297D01*
X135824250Y-94662081D01*
X135804038Y-94654849D01*
X135784632Y-94645670D01*
X135766219Y-94634634D01*
X135748976Y-94621846D01*
X135733070Y-94607430D01*
X135718654Y-94591524D01*
X135705866Y-94574281D01*
X135694830Y-94555868D01*
X135685651Y-94536462D01*
X135678419Y-94516250D01*
X135673203Y-94495426D01*
X135670053Y-94474191D01*
X135669000Y-94452750D01*
X135669000Y-94015250D01*
X135670053Y-93993809D01*
X135673203Y-93972574D01*
X135678419Y-93951750D01*
X135685651Y-93931538D01*
X135694830Y-93912132D01*
X135705866Y-93893719D01*
X135718654Y-93876476D01*
X135733070Y-93860570D01*
X135748976Y-93846154D01*
X135766219Y-93833366D01*
X135784632Y-93822330D01*
X135804038Y-93813151D01*
X135824250Y-93805919D01*
X135845074Y-93800703D01*
X135866309Y-93797553D01*
X135887750Y-93796500D01*
X136400250Y-93796500D01*
X136421691Y-93797553D01*
X136421691Y-93797553D01*
G37*
D11*
X136144000Y-94234000D03*
D10*
G36*
X152106691Y-83600053D02*
G01*
X152127926Y-83603203D01*
X152148750Y-83608419D01*
X152168962Y-83615651D01*
X152188368Y-83624830D01*
X152206781Y-83635866D01*
X152224024Y-83648654D01*
X152239930Y-83663070D01*
X152254346Y-83678976D01*
X152267134Y-83696219D01*
X152278170Y-83714632D01*
X152287349Y-83734038D01*
X152294581Y-83754250D01*
X152299797Y-83775074D01*
X152302947Y-83796309D01*
X152304000Y-83817750D01*
X152304000Y-84330250D01*
X152302947Y-84351691D01*
X152299797Y-84372926D01*
X152294581Y-84393750D01*
X152287349Y-84413962D01*
X152278170Y-84433368D01*
X152267134Y-84451781D01*
X152254346Y-84469024D01*
X152239930Y-84484930D01*
X152224024Y-84499346D01*
X152206781Y-84512134D01*
X152188368Y-84523170D01*
X152168962Y-84532349D01*
X152148750Y-84539581D01*
X152127926Y-84544797D01*
X152106691Y-84547947D01*
X152085250Y-84549000D01*
X151647750Y-84549000D01*
X151626309Y-84547947D01*
X151605074Y-84544797D01*
X151584250Y-84539581D01*
X151564038Y-84532349D01*
X151544632Y-84523170D01*
X151526219Y-84512134D01*
X151508976Y-84499346D01*
X151493070Y-84484930D01*
X151478654Y-84469024D01*
X151465866Y-84451781D01*
X151454830Y-84433368D01*
X151445651Y-84413962D01*
X151438419Y-84393750D01*
X151433203Y-84372926D01*
X151430053Y-84351691D01*
X151429000Y-84330250D01*
X151429000Y-83817750D01*
X151430053Y-83796309D01*
X151433203Y-83775074D01*
X151438419Y-83754250D01*
X151445651Y-83734038D01*
X151454830Y-83714632D01*
X151465866Y-83696219D01*
X151478654Y-83678976D01*
X151493070Y-83663070D01*
X151508976Y-83648654D01*
X151526219Y-83635866D01*
X151544632Y-83624830D01*
X151564038Y-83615651D01*
X151584250Y-83608419D01*
X151605074Y-83603203D01*
X151626309Y-83600053D01*
X151647750Y-83599000D01*
X152085250Y-83599000D01*
X152106691Y-83600053D01*
X152106691Y-83600053D01*
G37*
D11*
X151866500Y-84074000D03*
D10*
G36*
X153681691Y-83600053D02*
G01*
X153702926Y-83603203D01*
X153723750Y-83608419D01*
X153743962Y-83615651D01*
X153763368Y-83624830D01*
X153781781Y-83635866D01*
X153799024Y-83648654D01*
X153814930Y-83663070D01*
X153829346Y-83678976D01*
X153842134Y-83696219D01*
X153853170Y-83714632D01*
X153862349Y-83734038D01*
X153869581Y-83754250D01*
X153874797Y-83775074D01*
X153877947Y-83796309D01*
X153879000Y-83817750D01*
X153879000Y-84330250D01*
X153877947Y-84351691D01*
X153874797Y-84372926D01*
X153869581Y-84393750D01*
X153862349Y-84413962D01*
X153853170Y-84433368D01*
X153842134Y-84451781D01*
X153829346Y-84469024D01*
X153814930Y-84484930D01*
X153799024Y-84499346D01*
X153781781Y-84512134D01*
X153763368Y-84523170D01*
X153743962Y-84532349D01*
X153723750Y-84539581D01*
X153702926Y-84544797D01*
X153681691Y-84547947D01*
X153660250Y-84549000D01*
X153222750Y-84549000D01*
X153201309Y-84547947D01*
X153180074Y-84544797D01*
X153159250Y-84539581D01*
X153139038Y-84532349D01*
X153119632Y-84523170D01*
X153101219Y-84512134D01*
X153083976Y-84499346D01*
X153068070Y-84484930D01*
X153053654Y-84469024D01*
X153040866Y-84451781D01*
X153029830Y-84433368D01*
X153020651Y-84413962D01*
X153013419Y-84393750D01*
X153008203Y-84372926D01*
X153005053Y-84351691D01*
X153004000Y-84330250D01*
X153004000Y-83817750D01*
X153005053Y-83796309D01*
X153008203Y-83775074D01*
X153013419Y-83754250D01*
X153020651Y-83734038D01*
X153029830Y-83714632D01*
X153040866Y-83696219D01*
X153053654Y-83678976D01*
X153068070Y-83663070D01*
X153083976Y-83648654D01*
X153101219Y-83635866D01*
X153119632Y-83624830D01*
X153139038Y-83615651D01*
X153159250Y-83608419D01*
X153180074Y-83603203D01*
X153201309Y-83600053D01*
X153222750Y-83599000D01*
X153660250Y-83599000D01*
X153681691Y-83600053D01*
X153681691Y-83600053D01*
G37*
D11*
X153441500Y-84074000D03*
D10*
G36*
X152106691Y-78520053D02*
G01*
X152127926Y-78523203D01*
X152148750Y-78528419D01*
X152168962Y-78535651D01*
X152188368Y-78544830D01*
X152206781Y-78555866D01*
X152224024Y-78568654D01*
X152239930Y-78583070D01*
X152254346Y-78598976D01*
X152267134Y-78616219D01*
X152278170Y-78634632D01*
X152287349Y-78654038D01*
X152294581Y-78674250D01*
X152299797Y-78695074D01*
X152302947Y-78716309D01*
X152304000Y-78737750D01*
X152304000Y-79250250D01*
X152302947Y-79271691D01*
X152299797Y-79292926D01*
X152294581Y-79313750D01*
X152287349Y-79333962D01*
X152278170Y-79353368D01*
X152267134Y-79371781D01*
X152254346Y-79389024D01*
X152239930Y-79404930D01*
X152224024Y-79419346D01*
X152206781Y-79432134D01*
X152188368Y-79443170D01*
X152168962Y-79452349D01*
X152148750Y-79459581D01*
X152127926Y-79464797D01*
X152106691Y-79467947D01*
X152085250Y-79469000D01*
X151647750Y-79469000D01*
X151626309Y-79467947D01*
X151605074Y-79464797D01*
X151584250Y-79459581D01*
X151564038Y-79452349D01*
X151544632Y-79443170D01*
X151526219Y-79432134D01*
X151508976Y-79419346D01*
X151493070Y-79404930D01*
X151478654Y-79389024D01*
X151465866Y-79371781D01*
X151454830Y-79353368D01*
X151445651Y-79333962D01*
X151438419Y-79313750D01*
X151433203Y-79292926D01*
X151430053Y-79271691D01*
X151429000Y-79250250D01*
X151429000Y-78737750D01*
X151430053Y-78716309D01*
X151433203Y-78695074D01*
X151438419Y-78674250D01*
X151445651Y-78654038D01*
X151454830Y-78634632D01*
X151465866Y-78616219D01*
X151478654Y-78598976D01*
X151493070Y-78583070D01*
X151508976Y-78568654D01*
X151526219Y-78555866D01*
X151544632Y-78544830D01*
X151564038Y-78535651D01*
X151584250Y-78528419D01*
X151605074Y-78523203D01*
X151626309Y-78520053D01*
X151647750Y-78519000D01*
X152085250Y-78519000D01*
X152106691Y-78520053D01*
X152106691Y-78520053D01*
G37*
D11*
X151866500Y-78994000D03*
D10*
G36*
X153681691Y-78520053D02*
G01*
X153702926Y-78523203D01*
X153723750Y-78528419D01*
X153743962Y-78535651D01*
X153763368Y-78544830D01*
X153781781Y-78555866D01*
X153799024Y-78568654D01*
X153814930Y-78583070D01*
X153829346Y-78598976D01*
X153842134Y-78616219D01*
X153853170Y-78634632D01*
X153862349Y-78654038D01*
X153869581Y-78674250D01*
X153874797Y-78695074D01*
X153877947Y-78716309D01*
X153879000Y-78737750D01*
X153879000Y-79250250D01*
X153877947Y-79271691D01*
X153874797Y-79292926D01*
X153869581Y-79313750D01*
X153862349Y-79333962D01*
X153853170Y-79353368D01*
X153842134Y-79371781D01*
X153829346Y-79389024D01*
X153814930Y-79404930D01*
X153799024Y-79419346D01*
X153781781Y-79432134D01*
X153763368Y-79443170D01*
X153743962Y-79452349D01*
X153723750Y-79459581D01*
X153702926Y-79464797D01*
X153681691Y-79467947D01*
X153660250Y-79469000D01*
X153222750Y-79469000D01*
X153201309Y-79467947D01*
X153180074Y-79464797D01*
X153159250Y-79459581D01*
X153139038Y-79452349D01*
X153119632Y-79443170D01*
X153101219Y-79432134D01*
X153083976Y-79419346D01*
X153068070Y-79404930D01*
X153053654Y-79389024D01*
X153040866Y-79371781D01*
X153029830Y-79353368D01*
X153020651Y-79333962D01*
X153013419Y-79313750D01*
X153008203Y-79292926D01*
X153005053Y-79271691D01*
X153004000Y-79250250D01*
X153004000Y-78737750D01*
X153005053Y-78716309D01*
X153008203Y-78695074D01*
X153013419Y-78674250D01*
X153020651Y-78654038D01*
X153029830Y-78634632D01*
X153040866Y-78616219D01*
X153053654Y-78598976D01*
X153068070Y-78583070D01*
X153083976Y-78568654D01*
X153101219Y-78555866D01*
X153119632Y-78544830D01*
X153139038Y-78535651D01*
X153159250Y-78528419D01*
X153180074Y-78523203D01*
X153201309Y-78520053D01*
X153222750Y-78519000D01*
X153660250Y-78519000D01*
X153681691Y-78520053D01*
X153681691Y-78520053D01*
G37*
D11*
X153441500Y-78994000D03*
D10*
G36*
X153681691Y-93760053D02*
G01*
X153702926Y-93763203D01*
X153723750Y-93768419D01*
X153743962Y-93775651D01*
X153763368Y-93784830D01*
X153781781Y-93795866D01*
X153799024Y-93808654D01*
X153814930Y-93823070D01*
X153829346Y-93838976D01*
X153842134Y-93856219D01*
X153853170Y-93874632D01*
X153862349Y-93894038D01*
X153869581Y-93914250D01*
X153874797Y-93935074D01*
X153877947Y-93956309D01*
X153879000Y-93977750D01*
X153879000Y-94490250D01*
X153877947Y-94511691D01*
X153874797Y-94532926D01*
X153869581Y-94553750D01*
X153862349Y-94573962D01*
X153853170Y-94593368D01*
X153842134Y-94611781D01*
X153829346Y-94629024D01*
X153814930Y-94644930D01*
X153799024Y-94659346D01*
X153781781Y-94672134D01*
X153763368Y-94683170D01*
X153743962Y-94692349D01*
X153723750Y-94699581D01*
X153702926Y-94704797D01*
X153681691Y-94707947D01*
X153660250Y-94709000D01*
X153222750Y-94709000D01*
X153201309Y-94707947D01*
X153180074Y-94704797D01*
X153159250Y-94699581D01*
X153139038Y-94692349D01*
X153119632Y-94683170D01*
X153101219Y-94672134D01*
X153083976Y-94659346D01*
X153068070Y-94644930D01*
X153053654Y-94629024D01*
X153040866Y-94611781D01*
X153029830Y-94593368D01*
X153020651Y-94573962D01*
X153013419Y-94553750D01*
X153008203Y-94532926D01*
X153005053Y-94511691D01*
X153004000Y-94490250D01*
X153004000Y-93977750D01*
X153005053Y-93956309D01*
X153008203Y-93935074D01*
X153013419Y-93914250D01*
X153020651Y-93894038D01*
X153029830Y-93874632D01*
X153040866Y-93856219D01*
X153053654Y-93838976D01*
X153068070Y-93823070D01*
X153083976Y-93808654D01*
X153101219Y-93795866D01*
X153119632Y-93784830D01*
X153139038Y-93775651D01*
X153159250Y-93768419D01*
X153180074Y-93763203D01*
X153201309Y-93760053D01*
X153222750Y-93759000D01*
X153660250Y-93759000D01*
X153681691Y-93760053D01*
X153681691Y-93760053D01*
G37*
D11*
X153441500Y-94234000D03*
D10*
G36*
X152106691Y-93760053D02*
G01*
X152127926Y-93763203D01*
X152148750Y-93768419D01*
X152168962Y-93775651D01*
X152188368Y-93784830D01*
X152206781Y-93795866D01*
X152224024Y-93808654D01*
X152239930Y-93823070D01*
X152254346Y-93838976D01*
X152267134Y-93856219D01*
X152278170Y-93874632D01*
X152287349Y-93894038D01*
X152294581Y-93914250D01*
X152299797Y-93935074D01*
X152302947Y-93956309D01*
X152304000Y-93977750D01*
X152304000Y-94490250D01*
X152302947Y-94511691D01*
X152299797Y-94532926D01*
X152294581Y-94553750D01*
X152287349Y-94573962D01*
X152278170Y-94593368D01*
X152267134Y-94611781D01*
X152254346Y-94629024D01*
X152239930Y-94644930D01*
X152224024Y-94659346D01*
X152206781Y-94672134D01*
X152188368Y-94683170D01*
X152168962Y-94692349D01*
X152148750Y-94699581D01*
X152127926Y-94704797D01*
X152106691Y-94707947D01*
X152085250Y-94709000D01*
X151647750Y-94709000D01*
X151626309Y-94707947D01*
X151605074Y-94704797D01*
X151584250Y-94699581D01*
X151564038Y-94692349D01*
X151544632Y-94683170D01*
X151526219Y-94672134D01*
X151508976Y-94659346D01*
X151493070Y-94644930D01*
X151478654Y-94629024D01*
X151465866Y-94611781D01*
X151454830Y-94593368D01*
X151445651Y-94573962D01*
X151438419Y-94553750D01*
X151433203Y-94532926D01*
X151430053Y-94511691D01*
X151429000Y-94490250D01*
X151429000Y-93977750D01*
X151430053Y-93956309D01*
X151433203Y-93935074D01*
X151438419Y-93914250D01*
X151445651Y-93894038D01*
X151454830Y-93874632D01*
X151465866Y-93856219D01*
X151478654Y-93838976D01*
X151493070Y-93823070D01*
X151508976Y-93808654D01*
X151526219Y-93795866D01*
X151544632Y-93784830D01*
X151564038Y-93775651D01*
X151584250Y-93768419D01*
X151605074Y-93763203D01*
X151626309Y-93760053D01*
X151647750Y-93759000D01*
X152085250Y-93759000D01*
X152106691Y-93760053D01*
X152106691Y-93760053D01*
G37*
D11*
X151866500Y-94234000D03*
D10*
G36*
X136421691Y-90775053D02*
G01*
X136442926Y-90778203D01*
X136463750Y-90783419D01*
X136483962Y-90790651D01*
X136503368Y-90799830D01*
X136521781Y-90810866D01*
X136539024Y-90823654D01*
X136554930Y-90838070D01*
X136569346Y-90853976D01*
X136582134Y-90871219D01*
X136593170Y-90889632D01*
X136602349Y-90909038D01*
X136609581Y-90929250D01*
X136614797Y-90950074D01*
X136617947Y-90971309D01*
X136619000Y-90992750D01*
X136619000Y-91430250D01*
X136617947Y-91451691D01*
X136614797Y-91472926D01*
X136609581Y-91493750D01*
X136602349Y-91513962D01*
X136593170Y-91533368D01*
X136582134Y-91551781D01*
X136569346Y-91569024D01*
X136554930Y-91584930D01*
X136539024Y-91599346D01*
X136521781Y-91612134D01*
X136503368Y-91623170D01*
X136483962Y-91632349D01*
X136463750Y-91639581D01*
X136442926Y-91644797D01*
X136421691Y-91647947D01*
X136400250Y-91649000D01*
X135887750Y-91649000D01*
X135866309Y-91647947D01*
X135845074Y-91644797D01*
X135824250Y-91639581D01*
X135804038Y-91632349D01*
X135784632Y-91623170D01*
X135766219Y-91612134D01*
X135748976Y-91599346D01*
X135733070Y-91584930D01*
X135718654Y-91569024D01*
X135705866Y-91551781D01*
X135694830Y-91533368D01*
X135685651Y-91513962D01*
X135678419Y-91493750D01*
X135673203Y-91472926D01*
X135670053Y-91451691D01*
X135669000Y-91430250D01*
X135669000Y-90992750D01*
X135670053Y-90971309D01*
X135673203Y-90950074D01*
X135678419Y-90929250D01*
X135685651Y-90909038D01*
X135694830Y-90889632D01*
X135705866Y-90871219D01*
X135718654Y-90853976D01*
X135733070Y-90838070D01*
X135748976Y-90823654D01*
X135766219Y-90810866D01*
X135784632Y-90799830D01*
X135804038Y-90790651D01*
X135824250Y-90783419D01*
X135845074Y-90778203D01*
X135866309Y-90775053D01*
X135887750Y-90774000D01*
X136400250Y-90774000D01*
X136421691Y-90775053D01*
X136421691Y-90775053D01*
G37*
D11*
X136144000Y-91211500D03*
D10*
G36*
X136421691Y-89200053D02*
G01*
X136442926Y-89203203D01*
X136463750Y-89208419D01*
X136483962Y-89215651D01*
X136503368Y-89224830D01*
X136521781Y-89235866D01*
X136539024Y-89248654D01*
X136554930Y-89263070D01*
X136569346Y-89278976D01*
X136582134Y-89296219D01*
X136593170Y-89314632D01*
X136602349Y-89334038D01*
X136609581Y-89354250D01*
X136614797Y-89375074D01*
X136617947Y-89396309D01*
X136619000Y-89417750D01*
X136619000Y-89855250D01*
X136617947Y-89876691D01*
X136614797Y-89897926D01*
X136609581Y-89918750D01*
X136602349Y-89938962D01*
X136593170Y-89958368D01*
X136582134Y-89976781D01*
X136569346Y-89994024D01*
X136554930Y-90009930D01*
X136539024Y-90024346D01*
X136521781Y-90037134D01*
X136503368Y-90048170D01*
X136483962Y-90057349D01*
X136463750Y-90064581D01*
X136442926Y-90069797D01*
X136421691Y-90072947D01*
X136400250Y-90074000D01*
X135887750Y-90074000D01*
X135866309Y-90072947D01*
X135845074Y-90069797D01*
X135824250Y-90064581D01*
X135804038Y-90057349D01*
X135784632Y-90048170D01*
X135766219Y-90037134D01*
X135748976Y-90024346D01*
X135733070Y-90009930D01*
X135718654Y-89994024D01*
X135705866Y-89976781D01*
X135694830Y-89958368D01*
X135685651Y-89938962D01*
X135678419Y-89918750D01*
X135673203Y-89897926D01*
X135670053Y-89876691D01*
X135669000Y-89855250D01*
X135669000Y-89417750D01*
X135670053Y-89396309D01*
X135673203Y-89375074D01*
X135678419Y-89354250D01*
X135685651Y-89334038D01*
X135694830Y-89314632D01*
X135705866Y-89296219D01*
X135718654Y-89278976D01*
X135733070Y-89263070D01*
X135748976Y-89248654D01*
X135766219Y-89235866D01*
X135784632Y-89224830D01*
X135804038Y-89215651D01*
X135824250Y-89208419D01*
X135845074Y-89203203D01*
X135866309Y-89200053D01*
X135887750Y-89199000D01*
X136400250Y-89199000D01*
X136421691Y-89200053D01*
X136421691Y-89200053D01*
G37*
D11*
X136144000Y-89636500D03*
D10*
G36*
X136421691Y-86965053D02*
G01*
X136442926Y-86968203D01*
X136463750Y-86973419D01*
X136483962Y-86980651D01*
X136503368Y-86989830D01*
X136521781Y-87000866D01*
X136539024Y-87013654D01*
X136554930Y-87028070D01*
X136569346Y-87043976D01*
X136582134Y-87061219D01*
X136593170Y-87079632D01*
X136602349Y-87099038D01*
X136609581Y-87119250D01*
X136614797Y-87140074D01*
X136617947Y-87161309D01*
X136619000Y-87182750D01*
X136619000Y-87620250D01*
X136617947Y-87641691D01*
X136614797Y-87662926D01*
X136609581Y-87683750D01*
X136602349Y-87703962D01*
X136593170Y-87723368D01*
X136582134Y-87741781D01*
X136569346Y-87759024D01*
X136554930Y-87774930D01*
X136539024Y-87789346D01*
X136521781Y-87802134D01*
X136503368Y-87813170D01*
X136483962Y-87822349D01*
X136463750Y-87829581D01*
X136442926Y-87834797D01*
X136421691Y-87837947D01*
X136400250Y-87839000D01*
X135887750Y-87839000D01*
X135866309Y-87837947D01*
X135845074Y-87834797D01*
X135824250Y-87829581D01*
X135804038Y-87822349D01*
X135784632Y-87813170D01*
X135766219Y-87802134D01*
X135748976Y-87789346D01*
X135733070Y-87774930D01*
X135718654Y-87759024D01*
X135705866Y-87741781D01*
X135694830Y-87723368D01*
X135685651Y-87703962D01*
X135678419Y-87683750D01*
X135673203Y-87662926D01*
X135670053Y-87641691D01*
X135669000Y-87620250D01*
X135669000Y-87182750D01*
X135670053Y-87161309D01*
X135673203Y-87140074D01*
X135678419Y-87119250D01*
X135685651Y-87099038D01*
X135694830Y-87079632D01*
X135705866Y-87061219D01*
X135718654Y-87043976D01*
X135733070Y-87028070D01*
X135748976Y-87013654D01*
X135766219Y-87000866D01*
X135784632Y-86989830D01*
X135804038Y-86980651D01*
X135824250Y-86973419D01*
X135845074Y-86968203D01*
X135866309Y-86965053D01*
X135887750Y-86964000D01*
X136400250Y-86964000D01*
X136421691Y-86965053D01*
X136421691Y-86965053D01*
G37*
D11*
X136144000Y-87401500D03*
D10*
G36*
X136421691Y-85390053D02*
G01*
X136442926Y-85393203D01*
X136463750Y-85398419D01*
X136483962Y-85405651D01*
X136503368Y-85414830D01*
X136521781Y-85425866D01*
X136539024Y-85438654D01*
X136554930Y-85453070D01*
X136569346Y-85468976D01*
X136582134Y-85486219D01*
X136593170Y-85504632D01*
X136602349Y-85524038D01*
X136609581Y-85544250D01*
X136614797Y-85565074D01*
X136617947Y-85586309D01*
X136619000Y-85607750D01*
X136619000Y-86045250D01*
X136617947Y-86066691D01*
X136614797Y-86087926D01*
X136609581Y-86108750D01*
X136602349Y-86128962D01*
X136593170Y-86148368D01*
X136582134Y-86166781D01*
X136569346Y-86184024D01*
X136554930Y-86199930D01*
X136539024Y-86214346D01*
X136521781Y-86227134D01*
X136503368Y-86238170D01*
X136483962Y-86247349D01*
X136463750Y-86254581D01*
X136442926Y-86259797D01*
X136421691Y-86262947D01*
X136400250Y-86264000D01*
X135887750Y-86264000D01*
X135866309Y-86262947D01*
X135845074Y-86259797D01*
X135824250Y-86254581D01*
X135804038Y-86247349D01*
X135784632Y-86238170D01*
X135766219Y-86227134D01*
X135748976Y-86214346D01*
X135733070Y-86199930D01*
X135718654Y-86184024D01*
X135705866Y-86166781D01*
X135694830Y-86148368D01*
X135685651Y-86128962D01*
X135678419Y-86108750D01*
X135673203Y-86087926D01*
X135670053Y-86066691D01*
X135669000Y-86045250D01*
X135669000Y-85607750D01*
X135670053Y-85586309D01*
X135673203Y-85565074D01*
X135678419Y-85544250D01*
X135685651Y-85524038D01*
X135694830Y-85504632D01*
X135705866Y-85486219D01*
X135718654Y-85468976D01*
X135733070Y-85453070D01*
X135748976Y-85438654D01*
X135766219Y-85425866D01*
X135784632Y-85414830D01*
X135804038Y-85405651D01*
X135824250Y-85398419D01*
X135845074Y-85393203D01*
X135866309Y-85390053D01*
X135887750Y-85389000D01*
X136400250Y-85389000D01*
X136421691Y-85390053D01*
X136421691Y-85390053D01*
G37*
D11*
X136144000Y-85826500D03*
D12*
X148574000Y-81534000D03*
X146574000Y-80584000D03*
X146574000Y-82484000D03*
X142224000Y-81534000D03*
X140224000Y-80584000D03*
X140224000Y-82484000D03*
X142224000Y-87884000D03*
X140224000Y-86934000D03*
X140224000Y-88834000D03*
X148574000Y-87884000D03*
X146574000Y-86934000D03*
X146574000Y-88834000D03*
M02*
