M48
; DRILL file {KiCad 5.1.3-ffb9f22~84~ubuntu16.04.1} date Mon 29 Jul 2019 14:44:02 AEST
; FORMAT={-:-/ absolute / metric / decimal}
; #@! TF.CreationDate,2019-07-29T14:44:02+10:00
; #@! TF.GenerationSoftware,Kicad,Pcbnew,5.1.3-ffb9f22~84~ubuntu16.04.1
; #@! TF.FileFunction,Plated,1,2,PTH
FMAT,2
METRIC
T1C0.400
T2C0.600
T3C0.762
T4C0.800
T5C1.000
T6C1.100
%
G90
G05
T1
X135.128Y-102.87
X136.398Y-92.964
X136.398Y-97.028
X138.938Y-80.772
X138.938Y-90.932
X141.986Y-89.916
X143.51Y-80.772
X143.51Y-84.836
X145.542Y-87.884
X146.558Y-85.852
X148.59Y-80.264
X148.59Y-84.836
X148.59Y-86.868
X149.098Y-91.948
X149.098Y-101.092
X149.606Y-92.964
X149.86Y-81.534
X150.114Y-87.884
X150.622Y-101.092
X150.622Y-104.394
X151.892Y-92.202
X152.146Y-81.28
X154.652Y-102.616
X158.242Y-93.218
X160.02Y-89.662
T2
X151.384Y-110.744
X153.384Y-110.744
X136.144Y-110.744
X138.144Y-110.744
T3
X132.969Y-84.074
X132.969Y-86.614
X132.969Y-89.154
X132.969Y-91.694
X132.969Y-94.234
X132.969Y-96.774
X132.969Y-99.314
X132.969Y-101.854
X132.969Y-104.394
X132.969Y-106.934
X132.969Y-109.474
X132.969Y-112.014
X132.969Y-114.554
X132.969Y-117.094
X132.969Y-119.634
X156.464Y-84.074
X156.464Y-86.614
X156.464Y-89.154
X156.464Y-91.694
X156.464Y-94.234
X156.464Y-96.774
X156.464Y-99.314
X156.464Y-101.854
X156.464Y-104.394
X156.464Y-106.934
X156.464Y-109.474
X156.464Y-112.014
X156.464Y-114.554
X156.464Y-117.094
X156.464Y-119.634
T4
X160.274Y-108.204
X160.274Y-110.744
X160.274Y-113.284
X160.274Y-115.824
T5
X160.274Y-78.994
X160.274Y-81.534
X160.274Y-84.074
X160.274Y-86.614
X160.274Y-92.964
X160.274Y-95.504
X160.274Y-98.044
X160.274Y-100.584
T6
X142.494Y-110.744
X145.034Y-110.744
X147.574Y-110.744
T5
G00X142.494Y-118.634
M15
G01X142.494Y-120.634
M16
G05
G00X144.494Y-114.934
M15
G01X146.494Y-114.934
M16
G05
G00X148.494Y-118.634
M15
G01X148.494Y-120.634
M16
G05
T0
M30
