G04 #@! TF.GenerationSoftware,KiCad,Pcbnew,5.1.3-ffb9f22~84~ubuntu16.04.1*
G04 #@! TF.CreationDate,2019-07-29T14:43:33+10:00*
G04 #@! TF.ProjectId,tankmon-pcb,74616e6b-6d6f-46e2-9d70-63622e6b6963,1a*
G04 #@! TF.SameCoordinates,Original*
G04 #@! TF.FileFunction,Soldermask,Top*
G04 #@! TF.FilePolarity,Negative*
%FSLAX46Y46*%
G04 Gerber Fmt 4.6, Leading zero omitted, Abs format (unit mm)*
G04 Created by KiCad (PCBNEW 5.1.3-ffb9f22~84~ubuntu16.04.1) date 2019-07-29 14:43:33*
%MOMM*%
%LPD*%
G04 APERTURE LIST*
%ADD10C,0.100000*%
G04 APERTURE END LIST*
D10*
G36*
X150295000Y-121435000D02*
G01*
X146693000Y-121435000D01*
X146693000Y-117833000D01*
X150295000Y-117833000D01*
X150295000Y-121435000D01*
X150295000Y-121435000D01*
G37*
G36*
X143470979Y-117847293D02*
G01*
X143604625Y-117887834D01*
X143727784Y-117953664D01*
X143835740Y-118042260D01*
X143924336Y-118150216D01*
X143990166Y-118273375D01*
X144030707Y-118407021D01*
X144045000Y-118552140D01*
X144045000Y-120715860D01*
X144030707Y-120860979D01*
X143990166Y-120994625D01*
X143924336Y-121117784D01*
X143835740Y-121225740D01*
X143727784Y-121314336D01*
X143604625Y-121380166D01*
X143470979Y-121420707D01*
X143325860Y-121435000D01*
X141662140Y-121435000D01*
X141517021Y-121420707D01*
X141383375Y-121380166D01*
X141260216Y-121314336D01*
X141152260Y-121225740D01*
X141063664Y-121117784D01*
X140997834Y-120994625D01*
X140957293Y-120860979D01*
X140943000Y-120715860D01*
X140943000Y-118552140D01*
X140957293Y-118407021D01*
X140997834Y-118273375D01*
X141063664Y-118150216D01*
X141152260Y-118042260D01*
X141260216Y-117953664D01*
X141383375Y-117887834D01*
X141517021Y-117847293D01*
X141662140Y-117833000D01*
X143325860Y-117833000D01*
X143470979Y-117847293D01*
X143470979Y-117847293D01*
G37*
G36*
X133206142Y-118852242D02*
G01*
X133354101Y-118913529D01*
X133487255Y-119002499D01*
X133600501Y-119115745D01*
X133689471Y-119248899D01*
X133750758Y-119396858D01*
X133782000Y-119553925D01*
X133782000Y-119714075D01*
X133750758Y-119871142D01*
X133689471Y-120019101D01*
X133600501Y-120152255D01*
X133487255Y-120265501D01*
X133354101Y-120354471D01*
X133206142Y-120415758D01*
X133049075Y-120447000D01*
X132888925Y-120447000D01*
X132731858Y-120415758D01*
X132583899Y-120354471D01*
X132450745Y-120265501D01*
X132337499Y-120152255D01*
X132248529Y-120019101D01*
X132187242Y-119871142D01*
X132156000Y-119714075D01*
X132156000Y-119553925D01*
X132187242Y-119396858D01*
X132248529Y-119248899D01*
X132337499Y-119115745D01*
X132450745Y-119002499D01*
X132583899Y-118913529D01*
X132731858Y-118852242D01*
X132888925Y-118821000D01*
X133049075Y-118821000D01*
X133206142Y-118852242D01*
X133206142Y-118852242D01*
G37*
G36*
X156701142Y-118852242D02*
G01*
X156849101Y-118913529D01*
X156982255Y-119002499D01*
X157095501Y-119115745D01*
X157184471Y-119248899D01*
X157245758Y-119396858D01*
X157277000Y-119553925D01*
X157277000Y-119714075D01*
X157245758Y-119871142D01*
X157184471Y-120019101D01*
X157095501Y-120152255D01*
X156982255Y-120265501D01*
X156849101Y-120354471D01*
X156701142Y-120415758D01*
X156544075Y-120447000D01*
X156383925Y-120447000D01*
X156226858Y-120415758D01*
X156078899Y-120354471D01*
X155945745Y-120265501D01*
X155832499Y-120152255D01*
X155743529Y-120019101D01*
X155682242Y-119871142D01*
X155651000Y-119714075D01*
X155651000Y-119553925D01*
X155682242Y-119396858D01*
X155743529Y-119248899D01*
X155832499Y-119115745D01*
X155945745Y-119002499D01*
X156078899Y-118913529D01*
X156226858Y-118852242D01*
X156383925Y-118821000D01*
X156544075Y-118821000D01*
X156701142Y-118852242D01*
X156701142Y-118852242D01*
G37*
G36*
X133206142Y-116312242D02*
G01*
X133354101Y-116373529D01*
X133487255Y-116462499D01*
X133600501Y-116575745D01*
X133689471Y-116708899D01*
X133750758Y-116856858D01*
X133782000Y-117013925D01*
X133782000Y-117174075D01*
X133750758Y-117331142D01*
X133689471Y-117479101D01*
X133600501Y-117612255D01*
X133487255Y-117725501D01*
X133354101Y-117814471D01*
X133206142Y-117875758D01*
X133049075Y-117907000D01*
X132888925Y-117907000D01*
X132731858Y-117875758D01*
X132583899Y-117814471D01*
X132450745Y-117725501D01*
X132337499Y-117612255D01*
X132248529Y-117479101D01*
X132187242Y-117331142D01*
X132156000Y-117174075D01*
X132156000Y-117013925D01*
X132187242Y-116856858D01*
X132248529Y-116708899D01*
X132337499Y-116575745D01*
X132450745Y-116462499D01*
X132583899Y-116373529D01*
X132731858Y-116312242D01*
X132888925Y-116281000D01*
X133049075Y-116281000D01*
X133206142Y-116312242D01*
X133206142Y-116312242D01*
G37*
G36*
X156701142Y-116312242D02*
G01*
X156849101Y-116373529D01*
X156982255Y-116462499D01*
X157095501Y-116575745D01*
X157184471Y-116708899D01*
X157245758Y-116856858D01*
X157277000Y-117013925D01*
X157277000Y-117174075D01*
X157245758Y-117331142D01*
X157184471Y-117479101D01*
X157095501Y-117612255D01*
X156982255Y-117725501D01*
X156849101Y-117814471D01*
X156701142Y-117875758D01*
X156544075Y-117907000D01*
X156383925Y-117907000D01*
X156226858Y-117875758D01*
X156078899Y-117814471D01*
X155945745Y-117725501D01*
X155832499Y-117612255D01*
X155743529Y-117479101D01*
X155682242Y-117331142D01*
X155651000Y-117174075D01*
X155651000Y-117013925D01*
X155682242Y-116856858D01*
X155743529Y-116708899D01*
X155832499Y-116575745D01*
X155945745Y-116462499D01*
X156078899Y-116373529D01*
X156226858Y-116312242D01*
X156383925Y-116281000D01*
X156544075Y-116281000D01*
X156701142Y-116312242D01*
X156701142Y-116312242D01*
G37*
G36*
X146620366Y-113149695D02*
G01*
X146777460Y-113197349D01*
X146922231Y-113274731D01*
X147049128Y-113378872D01*
X147153269Y-113505769D01*
X147230651Y-113650540D01*
X147278305Y-113807634D01*
X147295000Y-113977140D01*
X147295000Y-115890860D01*
X147278305Y-116060366D01*
X147230651Y-116217460D01*
X147153269Y-116362231D01*
X147049128Y-116489128D01*
X146922231Y-116593269D01*
X146777460Y-116670651D01*
X146620366Y-116718305D01*
X146450860Y-116735000D01*
X144537140Y-116735000D01*
X144367634Y-116718305D01*
X144210540Y-116670651D01*
X144065769Y-116593269D01*
X143938872Y-116489128D01*
X143834731Y-116362231D01*
X143757349Y-116217460D01*
X143709695Y-116060366D01*
X143693000Y-115890860D01*
X143693000Y-113977140D01*
X143709695Y-113807634D01*
X143757349Y-113650540D01*
X143834731Y-113505769D01*
X143938872Y-113378872D01*
X144065769Y-113274731D01*
X144210540Y-113197349D01*
X144367634Y-113149695D01*
X144537140Y-113133000D01*
X146450860Y-113133000D01*
X146620366Y-113149695D01*
X146620366Y-113149695D01*
G37*
G36*
X161075000Y-116625000D02*
G01*
X159473000Y-116625000D01*
X159473000Y-115023000D01*
X161075000Y-115023000D01*
X161075000Y-116625000D01*
X161075000Y-116625000D01*
G37*
G36*
X133206142Y-113772242D02*
G01*
X133354101Y-113833529D01*
X133487255Y-113922499D01*
X133600501Y-114035745D01*
X133689471Y-114168899D01*
X133750758Y-114316858D01*
X133782000Y-114473925D01*
X133782000Y-114634075D01*
X133750758Y-114791142D01*
X133689471Y-114939101D01*
X133600501Y-115072255D01*
X133487255Y-115185501D01*
X133354101Y-115274471D01*
X133206142Y-115335758D01*
X133049075Y-115367000D01*
X132888925Y-115367000D01*
X132731858Y-115335758D01*
X132583899Y-115274471D01*
X132450745Y-115185501D01*
X132337499Y-115072255D01*
X132248529Y-114939101D01*
X132187242Y-114791142D01*
X132156000Y-114634075D01*
X132156000Y-114473925D01*
X132187242Y-114316858D01*
X132248529Y-114168899D01*
X132337499Y-114035745D01*
X132450745Y-113922499D01*
X132583899Y-113833529D01*
X132731858Y-113772242D01*
X132888925Y-113741000D01*
X133049075Y-113741000D01*
X133206142Y-113772242D01*
X133206142Y-113772242D01*
G37*
G36*
X156701142Y-113772242D02*
G01*
X156849101Y-113833529D01*
X156982255Y-113922499D01*
X157095501Y-114035745D01*
X157184471Y-114168899D01*
X157245758Y-114316858D01*
X157277000Y-114473925D01*
X157277000Y-114634075D01*
X157245758Y-114791142D01*
X157184471Y-114939101D01*
X157095501Y-115072255D01*
X156982255Y-115185501D01*
X156849101Y-115274471D01*
X156701142Y-115335758D01*
X156544075Y-115367000D01*
X156383925Y-115367000D01*
X156226858Y-115335758D01*
X156078899Y-115274471D01*
X155945745Y-115185501D01*
X155832499Y-115072255D01*
X155743529Y-114939101D01*
X155682242Y-114791142D01*
X155651000Y-114634075D01*
X155651000Y-114473925D01*
X155682242Y-114316858D01*
X155743529Y-114168899D01*
X155832499Y-114035745D01*
X155945745Y-113922499D01*
X156078899Y-113833529D01*
X156226858Y-113772242D01*
X156383925Y-113741000D01*
X156544075Y-113741000D01*
X156701142Y-113772242D01*
X156701142Y-113772242D01*
G37*
G36*
X160507642Y-112513781D02*
G01*
X160653414Y-112574162D01*
X160653416Y-112574163D01*
X160784608Y-112661822D01*
X160896178Y-112773392D01*
X160911122Y-112795758D01*
X160983838Y-112904586D01*
X161044219Y-113050358D01*
X161075000Y-113205107D01*
X161075000Y-113362893D01*
X161044219Y-113517642D01*
X160983838Y-113663414D01*
X160983837Y-113663416D01*
X160896178Y-113794608D01*
X160784608Y-113906178D01*
X160653416Y-113993837D01*
X160653415Y-113993838D01*
X160653414Y-113993838D01*
X160507642Y-114054219D01*
X160352893Y-114085000D01*
X160195107Y-114085000D01*
X160040358Y-114054219D01*
X159894586Y-113993838D01*
X159894585Y-113993838D01*
X159894584Y-113993837D01*
X159763392Y-113906178D01*
X159651822Y-113794608D01*
X159564163Y-113663416D01*
X159564162Y-113663414D01*
X159503781Y-113517642D01*
X159473000Y-113362893D01*
X159473000Y-113205107D01*
X159503781Y-113050358D01*
X159564162Y-112904586D01*
X159636878Y-112795758D01*
X159651822Y-112773392D01*
X159763392Y-112661822D01*
X159894584Y-112574163D01*
X159894586Y-112574162D01*
X160040358Y-112513781D01*
X160195107Y-112483000D01*
X160352893Y-112483000D01*
X160507642Y-112513781D01*
X160507642Y-112513781D01*
G37*
G36*
X133206142Y-111232242D02*
G01*
X133354101Y-111293529D01*
X133487255Y-111382499D01*
X133600501Y-111495745D01*
X133689471Y-111628899D01*
X133750758Y-111776858D01*
X133782000Y-111933925D01*
X133782000Y-112094075D01*
X133750758Y-112251142D01*
X133689471Y-112399101D01*
X133600501Y-112532255D01*
X133487255Y-112645501D01*
X133354101Y-112734471D01*
X133206142Y-112795758D01*
X133049075Y-112827000D01*
X132888925Y-112827000D01*
X132731858Y-112795758D01*
X132583899Y-112734471D01*
X132450745Y-112645501D01*
X132337499Y-112532255D01*
X132248529Y-112399101D01*
X132187242Y-112251142D01*
X132156000Y-112094075D01*
X132156000Y-111933925D01*
X132187242Y-111776858D01*
X132248529Y-111628899D01*
X132337499Y-111495745D01*
X132450745Y-111382499D01*
X132583899Y-111293529D01*
X132731858Y-111232242D01*
X132888925Y-111201000D01*
X133049075Y-111201000D01*
X133206142Y-111232242D01*
X133206142Y-111232242D01*
G37*
G36*
X156701142Y-111232242D02*
G01*
X156849101Y-111293529D01*
X156982255Y-111382499D01*
X157095501Y-111495745D01*
X157184471Y-111628899D01*
X157245758Y-111776858D01*
X157277000Y-111933925D01*
X157277000Y-112094075D01*
X157245758Y-112251142D01*
X157184471Y-112399101D01*
X157095501Y-112532255D01*
X156982255Y-112645501D01*
X156849101Y-112734471D01*
X156701142Y-112795758D01*
X156544075Y-112827000D01*
X156383925Y-112827000D01*
X156226858Y-112795758D01*
X156078899Y-112734471D01*
X155945745Y-112645501D01*
X155832499Y-112532255D01*
X155743529Y-112399101D01*
X155682242Y-112251142D01*
X155651000Y-112094075D01*
X155651000Y-111933925D01*
X155682242Y-111776858D01*
X155743529Y-111628899D01*
X155832499Y-111495745D01*
X155945745Y-111382499D01*
X156078899Y-111293529D01*
X156226858Y-111232242D01*
X156383925Y-111201000D01*
X156544075Y-111201000D01*
X156701142Y-111232242D01*
X156701142Y-111232242D01*
G37*
G36*
X142690720Y-109707520D02*
G01*
X142879881Y-109764901D01*
X143054212Y-109858083D01*
X143207015Y-109983485D01*
X143332417Y-110136288D01*
X143348881Y-110167090D01*
X143425598Y-110310617D01*
X143425599Y-110310620D01*
X143482980Y-110499781D01*
X143497500Y-110647207D01*
X143497500Y-110840794D01*
X143482980Y-110988220D01*
X143425599Y-111177381D01*
X143332417Y-111351712D01*
X143207015Y-111504515D01*
X143054212Y-111629917D01*
X142972333Y-111673682D01*
X142879883Y-111723098D01*
X142879880Y-111723099D01*
X142690719Y-111780480D01*
X142494000Y-111799855D01*
X142297280Y-111780480D01*
X142108119Y-111723099D01*
X141933788Y-111629917D01*
X141780985Y-111504515D01*
X141655583Y-111351712D01*
X141603680Y-111254608D01*
X141562402Y-111177383D01*
X141556822Y-111158988D01*
X141505020Y-110988219D01*
X141490500Y-110840793D01*
X141490500Y-110647206D01*
X141505020Y-110499780D01*
X141562401Y-110310619D01*
X141655583Y-110136288D01*
X141780985Y-109983485D01*
X141933788Y-109858083D01*
X142108120Y-109764901D01*
X142297281Y-109707520D01*
X142494000Y-109688145D01*
X142690720Y-109707520D01*
X142690720Y-109707520D01*
G37*
G36*
X145230720Y-109707520D02*
G01*
X145419881Y-109764901D01*
X145594212Y-109858083D01*
X145747015Y-109983485D01*
X145872417Y-110136288D01*
X145888881Y-110167090D01*
X145965598Y-110310617D01*
X145965599Y-110310620D01*
X146022980Y-110499781D01*
X146037500Y-110647207D01*
X146037500Y-110840794D01*
X146022980Y-110988220D01*
X145965599Y-111177381D01*
X145872417Y-111351712D01*
X145747015Y-111504515D01*
X145594212Y-111629917D01*
X145512333Y-111673682D01*
X145419883Y-111723098D01*
X145419880Y-111723099D01*
X145230719Y-111780480D01*
X145034000Y-111799855D01*
X144837280Y-111780480D01*
X144648119Y-111723099D01*
X144473788Y-111629917D01*
X144320985Y-111504515D01*
X144195583Y-111351712D01*
X144143680Y-111254608D01*
X144102402Y-111177383D01*
X144096822Y-111158988D01*
X144045020Y-110988219D01*
X144030500Y-110840793D01*
X144030500Y-110647206D01*
X144045020Y-110499780D01*
X144102401Y-110310619D01*
X144195583Y-110136288D01*
X144320985Y-109983485D01*
X144473788Y-109858083D01*
X144648120Y-109764901D01*
X144837281Y-109707520D01*
X145034000Y-109688145D01*
X145230720Y-109707520D01*
X145230720Y-109707520D01*
G37*
G36*
X148577500Y-111795000D02*
G01*
X146570500Y-111795000D01*
X146570500Y-109693000D01*
X148577500Y-109693000D01*
X148577500Y-111795000D01*
X148577500Y-111795000D01*
G37*
G36*
X160507642Y-109973781D02*
G01*
X160653414Y-110034162D01*
X160653416Y-110034163D01*
X160784608Y-110121822D01*
X160896178Y-110233392D01*
X160983837Y-110364584D01*
X160983838Y-110364586D01*
X161044219Y-110510358D01*
X161075000Y-110665107D01*
X161075000Y-110822893D01*
X161044219Y-110977642D01*
X161013268Y-111052364D01*
X160983837Y-111123416D01*
X160896178Y-111254608D01*
X160784608Y-111366178D01*
X160653416Y-111453837D01*
X160653415Y-111453838D01*
X160653414Y-111453838D01*
X160507642Y-111514219D01*
X160352893Y-111545000D01*
X160195107Y-111545000D01*
X160040358Y-111514219D01*
X159894586Y-111453838D01*
X159894585Y-111453838D01*
X159894584Y-111453837D01*
X159763392Y-111366178D01*
X159651822Y-111254608D01*
X159564163Y-111123416D01*
X159534732Y-111052364D01*
X159503781Y-110977642D01*
X159473000Y-110822893D01*
X159473000Y-110665107D01*
X159503781Y-110510358D01*
X159564162Y-110364586D01*
X159564163Y-110364584D01*
X159651822Y-110233392D01*
X159763392Y-110121822D01*
X159894584Y-110034163D01*
X159894586Y-110034162D01*
X160040358Y-109973781D01*
X160195107Y-109943000D01*
X160352893Y-109943000D01*
X160507642Y-109973781D01*
X160507642Y-109973781D01*
G37*
G36*
X138333890Y-110118017D02*
G01*
X138452364Y-110167091D01*
X138493341Y-110194471D01*
X138558988Y-110238335D01*
X138649665Y-110329012D01*
X138720910Y-110435638D01*
X138769983Y-110554110D01*
X138795000Y-110679881D01*
X138795000Y-110808119D01*
X138788500Y-110840795D01*
X138769983Y-110933890D01*
X138720909Y-111052364D01*
X138649665Y-111158988D01*
X138558988Y-111249665D01*
X138452364Y-111320909D01*
X138452363Y-111320910D01*
X138452362Y-111320910D01*
X138333890Y-111369983D01*
X138208119Y-111395000D01*
X138079881Y-111395000D01*
X137954110Y-111369983D01*
X137835638Y-111320910D01*
X137835637Y-111320910D01*
X137835636Y-111320909D01*
X137729012Y-111249665D01*
X137638335Y-111158988D01*
X137567091Y-111052364D01*
X137518017Y-110933890D01*
X137499500Y-110840795D01*
X137493000Y-110808119D01*
X137493000Y-110679881D01*
X137518017Y-110554110D01*
X137567090Y-110435638D01*
X137638335Y-110329012D01*
X137729012Y-110238335D01*
X137794659Y-110194471D01*
X137835636Y-110167091D01*
X137954110Y-110118017D01*
X138079881Y-110093000D01*
X138208119Y-110093000D01*
X138333890Y-110118017D01*
X138333890Y-110118017D01*
G37*
G36*
X136333890Y-110118017D02*
G01*
X136452364Y-110167091D01*
X136493341Y-110194471D01*
X136558988Y-110238335D01*
X136649665Y-110329012D01*
X136720910Y-110435638D01*
X136769983Y-110554110D01*
X136795000Y-110679881D01*
X136795000Y-110808119D01*
X136788500Y-110840795D01*
X136769983Y-110933890D01*
X136720909Y-111052364D01*
X136649665Y-111158988D01*
X136558988Y-111249665D01*
X136452364Y-111320909D01*
X136452363Y-111320910D01*
X136452362Y-111320910D01*
X136333890Y-111369983D01*
X136208119Y-111395000D01*
X136079881Y-111395000D01*
X135954110Y-111369983D01*
X135835638Y-111320910D01*
X135835637Y-111320910D01*
X135835636Y-111320909D01*
X135729012Y-111249665D01*
X135638335Y-111158988D01*
X135567091Y-111052364D01*
X135518017Y-110933890D01*
X135499500Y-110840795D01*
X135493000Y-110808119D01*
X135493000Y-110679881D01*
X135518017Y-110554110D01*
X135567090Y-110435638D01*
X135638335Y-110329012D01*
X135729012Y-110238335D01*
X135794659Y-110194471D01*
X135835636Y-110167091D01*
X135954110Y-110118017D01*
X136079881Y-110093000D01*
X136208119Y-110093000D01*
X136333890Y-110118017D01*
X136333890Y-110118017D01*
G37*
G36*
X153573890Y-110118017D02*
G01*
X153692364Y-110167091D01*
X153733341Y-110194471D01*
X153798988Y-110238335D01*
X153889665Y-110329012D01*
X153960910Y-110435638D01*
X154009983Y-110554110D01*
X154035000Y-110679881D01*
X154035000Y-110808119D01*
X154028500Y-110840795D01*
X154009983Y-110933890D01*
X153960909Y-111052364D01*
X153889665Y-111158988D01*
X153798988Y-111249665D01*
X153692364Y-111320909D01*
X153692363Y-111320910D01*
X153692362Y-111320910D01*
X153573890Y-111369983D01*
X153448119Y-111395000D01*
X153319881Y-111395000D01*
X153194110Y-111369983D01*
X153075638Y-111320910D01*
X153075637Y-111320910D01*
X153075636Y-111320909D01*
X152969012Y-111249665D01*
X152878335Y-111158988D01*
X152807091Y-111052364D01*
X152758017Y-110933890D01*
X152739500Y-110840795D01*
X152733000Y-110808119D01*
X152733000Y-110679881D01*
X152758017Y-110554110D01*
X152807090Y-110435638D01*
X152878335Y-110329012D01*
X152969012Y-110238335D01*
X153034659Y-110194471D01*
X153075636Y-110167091D01*
X153194110Y-110118017D01*
X153319881Y-110093000D01*
X153448119Y-110093000D01*
X153573890Y-110118017D01*
X153573890Y-110118017D01*
G37*
G36*
X151573890Y-110118017D02*
G01*
X151692364Y-110167091D01*
X151733341Y-110194471D01*
X151798988Y-110238335D01*
X151889665Y-110329012D01*
X151960910Y-110435638D01*
X152009983Y-110554110D01*
X152035000Y-110679881D01*
X152035000Y-110808119D01*
X152028500Y-110840795D01*
X152009983Y-110933890D01*
X151960909Y-111052364D01*
X151889665Y-111158988D01*
X151798988Y-111249665D01*
X151692364Y-111320909D01*
X151692363Y-111320910D01*
X151692362Y-111320910D01*
X151573890Y-111369983D01*
X151448119Y-111395000D01*
X151319881Y-111395000D01*
X151194110Y-111369983D01*
X151075638Y-111320910D01*
X151075637Y-111320910D01*
X151075636Y-111320909D01*
X150969012Y-111249665D01*
X150878335Y-111158988D01*
X150807091Y-111052364D01*
X150758017Y-110933890D01*
X150739500Y-110840795D01*
X150733000Y-110808119D01*
X150733000Y-110679881D01*
X150758017Y-110554110D01*
X150807090Y-110435638D01*
X150878335Y-110329012D01*
X150969012Y-110238335D01*
X151034659Y-110194471D01*
X151075636Y-110167091D01*
X151194110Y-110118017D01*
X151319881Y-110093000D01*
X151448119Y-110093000D01*
X151573890Y-110118017D01*
X151573890Y-110118017D01*
G37*
G36*
X156701142Y-108692242D02*
G01*
X156849101Y-108753529D01*
X156982255Y-108842499D01*
X157095501Y-108955745D01*
X157184471Y-109088899D01*
X157245758Y-109236858D01*
X157277000Y-109393925D01*
X157277000Y-109554075D01*
X157245758Y-109711142D01*
X157184471Y-109859101D01*
X157095501Y-109992255D01*
X156982255Y-110105501D01*
X156849101Y-110194471D01*
X156701142Y-110255758D01*
X156544075Y-110287000D01*
X156383925Y-110287000D01*
X156226858Y-110255758D01*
X156078899Y-110194471D01*
X155945745Y-110105501D01*
X155832499Y-109992255D01*
X155743529Y-109859101D01*
X155682242Y-109711142D01*
X155651000Y-109554075D01*
X155651000Y-109393925D01*
X155682242Y-109236858D01*
X155743529Y-109088899D01*
X155832499Y-108955745D01*
X155945745Y-108842499D01*
X156078899Y-108753529D01*
X156226858Y-108692242D01*
X156383925Y-108661000D01*
X156544075Y-108661000D01*
X156701142Y-108692242D01*
X156701142Y-108692242D01*
G37*
G36*
X133206142Y-108692242D02*
G01*
X133354101Y-108753529D01*
X133487255Y-108842499D01*
X133600501Y-108955745D01*
X133689471Y-109088899D01*
X133750758Y-109236858D01*
X133782000Y-109393925D01*
X133782000Y-109554075D01*
X133750758Y-109711142D01*
X133689471Y-109859101D01*
X133600501Y-109992255D01*
X133487255Y-110105501D01*
X133354101Y-110194471D01*
X133206142Y-110255758D01*
X133049075Y-110287000D01*
X132888925Y-110287000D01*
X132731858Y-110255758D01*
X132583899Y-110194471D01*
X132450745Y-110105501D01*
X132337499Y-109992255D01*
X132248529Y-109859101D01*
X132187242Y-109711142D01*
X132156000Y-109554075D01*
X132156000Y-109393925D01*
X132187242Y-109236858D01*
X132248529Y-109088899D01*
X132337499Y-108955745D01*
X132450745Y-108842499D01*
X132583899Y-108753529D01*
X132731858Y-108692242D01*
X132888925Y-108661000D01*
X133049075Y-108661000D01*
X133206142Y-108692242D01*
X133206142Y-108692242D01*
G37*
G36*
X160507642Y-107433781D02*
G01*
X160653414Y-107494162D01*
X160653416Y-107494163D01*
X160784608Y-107581822D01*
X160896178Y-107693392D01*
X160911122Y-107715758D01*
X160983838Y-107824586D01*
X161044219Y-107970358D01*
X161075000Y-108125107D01*
X161075000Y-108282893D01*
X161044219Y-108437642D01*
X160983838Y-108583414D01*
X160983837Y-108583416D01*
X160896178Y-108714608D01*
X160784608Y-108826178D01*
X160653416Y-108913837D01*
X160653415Y-108913838D01*
X160653414Y-108913838D01*
X160507642Y-108974219D01*
X160352893Y-109005000D01*
X160195107Y-109005000D01*
X160040358Y-108974219D01*
X159894586Y-108913838D01*
X159894585Y-108913838D01*
X159894584Y-108913837D01*
X159763392Y-108826178D01*
X159651822Y-108714608D01*
X159564163Y-108583416D01*
X159564162Y-108583414D01*
X159503781Y-108437642D01*
X159473000Y-108282893D01*
X159473000Y-108125107D01*
X159503781Y-107970358D01*
X159564162Y-107824586D01*
X159636878Y-107715758D01*
X159651822Y-107693392D01*
X159763392Y-107581822D01*
X159894584Y-107494163D01*
X159894586Y-107494162D01*
X160040358Y-107433781D01*
X160195107Y-107403000D01*
X160352893Y-107403000D01*
X160507642Y-107433781D01*
X160507642Y-107433781D01*
G37*
G36*
X133206142Y-106152242D02*
G01*
X133354101Y-106213529D01*
X133487255Y-106302499D01*
X133600501Y-106415745D01*
X133689471Y-106548899D01*
X133750758Y-106696858D01*
X133782000Y-106853925D01*
X133782000Y-107014075D01*
X133750758Y-107171142D01*
X133689471Y-107319101D01*
X133600501Y-107452255D01*
X133487255Y-107565501D01*
X133354101Y-107654471D01*
X133206142Y-107715758D01*
X133049075Y-107747000D01*
X132888925Y-107747000D01*
X132731858Y-107715758D01*
X132583899Y-107654471D01*
X132450745Y-107565501D01*
X132337499Y-107452255D01*
X132248529Y-107319101D01*
X132187242Y-107171142D01*
X132156000Y-107014075D01*
X132156000Y-106853925D01*
X132187242Y-106696858D01*
X132248529Y-106548899D01*
X132337499Y-106415745D01*
X132450745Y-106302499D01*
X132583899Y-106213529D01*
X132731858Y-106152242D01*
X132888925Y-106121000D01*
X133049075Y-106121000D01*
X133206142Y-106152242D01*
X133206142Y-106152242D01*
G37*
G36*
X156701142Y-106152242D02*
G01*
X156849101Y-106213529D01*
X156982255Y-106302499D01*
X157095501Y-106415745D01*
X157184471Y-106548899D01*
X157245758Y-106696858D01*
X157277000Y-106853925D01*
X157277000Y-107014075D01*
X157245758Y-107171142D01*
X157184471Y-107319101D01*
X157095501Y-107452255D01*
X156982255Y-107565501D01*
X156849101Y-107654471D01*
X156701142Y-107715758D01*
X156544075Y-107747000D01*
X156383925Y-107747000D01*
X156226858Y-107715758D01*
X156078899Y-107654471D01*
X155945745Y-107565501D01*
X155832499Y-107452255D01*
X155743529Y-107319101D01*
X155682242Y-107171142D01*
X155651000Y-107014075D01*
X155651000Y-106853925D01*
X155682242Y-106696858D01*
X155743529Y-106548899D01*
X155832499Y-106415745D01*
X155945745Y-106302499D01*
X156078899Y-106213529D01*
X156226858Y-106152242D01*
X156383925Y-106121000D01*
X156544075Y-106121000D01*
X156701142Y-106152242D01*
X156701142Y-106152242D01*
G37*
G36*
X156701142Y-103612242D02*
G01*
X156849101Y-103673529D01*
X156982255Y-103762499D01*
X157095501Y-103875745D01*
X157184471Y-104008899D01*
X157245758Y-104156858D01*
X157277000Y-104313925D01*
X157277000Y-104474075D01*
X157245758Y-104631142D01*
X157184471Y-104779101D01*
X157095501Y-104912255D01*
X156982255Y-105025501D01*
X156849101Y-105114471D01*
X156701142Y-105175758D01*
X156544075Y-105207000D01*
X156383925Y-105207000D01*
X156226858Y-105175758D01*
X156078899Y-105114471D01*
X155945745Y-105025501D01*
X155832499Y-104912255D01*
X155743529Y-104779101D01*
X155682242Y-104631142D01*
X155651000Y-104474075D01*
X155651000Y-104313925D01*
X155682242Y-104156858D01*
X155743529Y-104008899D01*
X155832499Y-103875745D01*
X155945745Y-103762499D01*
X156078899Y-103673529D01*
X156226858Y-103612242D01*
X156383925Y-103581000D01*
X156544075Y-103581000D01*
X156701142Y-103612242D01*
X156701142Y-103612242D01*
G37*
G36*
X133206142Y-103612242D02*
G01*
X133354101Y-103673529D01*
X133487255Y-103762499D01*
X133600501Y-103875745D01*
X133689471Y-104008899D01*
X133750758Y-104156858D01*
X133782000Y-104313925D01*
X133782000Y-104474075D01*
X133750758Y-104631142D01*
X133689471Y-104779101D01*
X133600501Y-104912255D01*
X133487255Y-105025501D01*
X133354101Y-105114471D01*
X133206142Y-105175758D01*
X133049075Y-105207000D01*
X132888925Y-105207000D01*
X132731858Y-105175758D01*
X132583899Y-105114471D01*
X132450745Y-105025501D01*
X132337499Y-104912255D01*
X132248529Y-104779101D01*
X132187242Y-104631142D01*
X132156000Y-104474075D01*
X132156000Y-104313925D01*
X132187242Y-104156858D01*
X132248529Y-104008899D01*
X132337499Y-103875745D01*
X132450745Y-103762499D01*
X132583899Y-103673529D01*
X132731858Y-103612242D01*
X132888925Y-103581000D01*
X133049075Y-103581000D01*
X133206142Y-103612242D01*
X133206142Y-103612242D01*
G37*
G36*
X156701142Y-101072242D02*
G01*
X156849101Y-101133529D01*
X156982255Y-101222499D01*
X157095501Y-101335745D01*
X157184471Y-101468899D01*
X157245758Y-101616858D01*
X157277000Y-101773925D01*
X157277000Y-101934075D01*
X157245758Y-102091142D01*
X157184471Y-102239101D01*
X157095501Y-102372255D01*
X156982255Y-102485501D01*
X156849101Y-102574471D01*
X156701142Y-102635758D01*
X156544075Y-102667000D01*
X156383925Y-102667000D01*
X156226858Y-102635758D01*
X156078899Y-102574471D01*
X155945745Y-102485501D01*
X155832499Y-102372255D01*
X155743529Y-102239101D01*
X155682242Y-102091142D01*
X155651000Y-101934075D01*
X155651000Y-101773925D01*
X155682242Y-101616858D01*
X155743529Y-101468899D01*
X155832499Y-101335745D01*
X155945745Y-101222499D01*
X156078899Y-101133529D01*
X156226858Y-101072242D01*
X156383925Y-101041000D01*
X156544075Y-101041000D01*
X156701142Y-101072242D01*
X156701142Y-101072242D01*
G37*
G36*
X133206142Y-101072242D02*
G01*
X133354101Y-101133529D01*
X133487255Y-101222499D01*
X133600501Y-101335745D01*
X133689471Y-101468899D01*
X133750758Y-101616858D01*
X133782000Y-101773925D01*
X133782000Y-101934075D01*
X133750758Y-102091142D01*
X133689471Y-102239101D01*
X133600501Y-102372255D01*
X133487255Y-102485501D01*
X133354101Y-102574471D01*
X133206142Y-102635758D01*
X133049075Y-102667000D01*
X132888925Y-102667000D01*
X132731858Y-102635758D01*
X132583899Y-102574471D01*
X132450745Y-102485501D01*
X132337499Y-102372255D01*
X132248529Y-102239101D01*
X132187242Y-102091142D01*
X132156000Y-101934075D01*
X132156000Y-101773925D01*
X132187242Y-101616858D01*
X132248529Y-101468899D01*
X132337499Y-101335745D01*
X132450745Y-101222499D01*
X132583899Y-101133529D01*
X132731858Y-101072242D01*
X132888925Y-101041000D01*
X133049075Y-101041000D01*
X133206142Y-101072242D01*
X133206142Y-101072242D01*
G37*
G36*
X161175000Y-101485000D02*
G01*
X159373000Y-101485000D01*
X159373000Y-99683000D01*
X161175000Y-99683000D01*
X161175000Y-101485000D01*
X161175000Y-101485000D01*
G37*
G36*
X156701142Y-98532242D02*
G01*
X156849101Y-98593529D01*
X156982255Y-98682499D01*
X157095501Y-98795745D01*
X157184471Y-98928899D01*
X157245758Y-99076858D01*
X157277000Y-99233925D01*
X157277000Y-99394075D01*
X157245758Y-99551142D01*
X157184471Y-99699101D01*
X157095501Y-99832255D01*
X156982255Y-99945501D01*
X156849101Y-100034471D01*
X156701142Y-100095758D01*
X156544075Y-100127000D01*
X156383925Y-100127000D01*
X156226858Y-100095758D01*
X156078899Y-100034471D01*
X155945745Y-99945501D01*
X155832499Y-99832255D01*
X155743529Y-99699101D01*
X155682242Y-99551142D01*
X155651000Y-99394075D01*
X155651000Y-99233925D01*
X155682242Y-99076858D01*
X155743529Y-98928899D01*
X155832499Y-98795745D01*
X155945745Y-98682499D01*
X156078899Y-98593529D01*
X156226858Y-98532242D01*
X156383925Y-98501000D01*
X156544075Y-98501000D01*
X156701142Y-98532242D01*
X156701142Y-98532242D01*
G37*
G36*
X133206142Y-98532242D02*
G01*
X133354101Y-98593529D01*
X133487255Y-98682499D01*
X133600501Y-98795745D01*
X133689471Y-98928899D01*
X133750758Y-99076858D01*
X133782000Y-99233925D01*
X133782000Y-99394075D01*
X133750758Y-99551142D01*
X133689471Y-99699101D01*
X133600501Y-99832255D01*
X133487255Y-99945501D01*
X133354101Y-100034471D01*
X133206142Y-100095758D01*
X133049075Y-100127000D01*
X132888925Y-100127000D01*
X132731858Y-100095758D01*
X132583899Y-100034471D01*
X132450745Y-99945501D01*
X132337499Y-99832255D01*
X132248529Y-99699101D01*
X132187242Y-99551142D01*
X132156000Y-99394075D01*
X132156000Y-99233925D01*
X132187242Y-99076858D01*
X132248529Y-98928899D01*
X132337499Y-98795745D01*
X132450745Y-98682499D01*
X132583899Y-98593529D01*
X132731858Y-98532242D01*
X132888925Y-98501000D01*
X133049075Y-98501000D01*
X133206142Y-98532242D01*
X133206142Y-98532242D01*
G37*
G36*
X160384443Y-97149519D02*
G01*
X160450627Y-97156037D01*
X160620466Y-97207557D01*
X160776991Y-97291222D01*
X160812729Y-97320552D01*
X160914186Y-97403814D01*
X160988585Y-97494471D01*
X161026778Y-97541009D01*
X161110443Y-97697534D01*
X161161963Y-97867373D01*
X161179359Y-98044000D01*
X161161963Y-98220627D01*
X161110443Y-98390466D01*
X161026778Y-98546991D01*
X160997448Y-98582729D01*
X160914186Y-98684186D01*
X160812729Y-98767448D01*
X160776991Y-98796778D01*
X160620466Y-98880443D01*
X160450627Y-98931963D01*
X160384443Y-98938481D01*
X160318260Y-98945000D01*
X160229740Y-98945000D01*
X160163558Y-98938482D01*
X160097373Y-98931963D01*
X159927534Y-98880443D01*
X159771009Y-98796778D01*
X159735271Y-98767448D01*
X159633814Y-98684186D01*
X159550552Y-98582729D01*
X159521222Y-98546991D01*
X159437557Y-98390466D01*
X159386037Y-98220627D01*
X159368641Y-98044000D01*
X159386037Y-97867373D01*
X159437557Y-97697534D01*
X159521222Y-97541009D01*
X159559415Y-97494471D01*
X159633814Y-97403814D01*
X159735271Y-97320552D01*
X159771009Y-97291222D01*
X159927534Y-97207557D01*
X160097373Y-97156037D01*
X160163558Y-97149518D01*
X160229740Y-97143000D01*
X160318260Y-97143000D01*
X160384443Y-97149519D01*
X160384443Y-97149519D01*
G37*
G36*
X133206142Y-95992242D02*
G01*
X133354101Y-96053529D01*
X133487255Y-96142499D01*
X133600501Y-96255745D01*
X133689471Y-96388899D01*
X133750758Y-96536858D01*
X133782000Y-96693925D01*
X133782000Y-96854075D01*
X133750758Y-97011142D01*
X133689471Y-97159101D01*
X133600501Y-97292255D01*
X133487255Y-97405501D01*
X133354101Y-97494471D01*
X133206142Y-97555758D01*
X133049075Y-97587000D01*
X132888925Y-97587000D01*
X132731858Y-97555758D01*
X132583899Y-97494471D01*
X132450745Y-97405501D01*
X132337499Y-97292255D01*
X132248529Y-97159101D01*
X132187242Y-97011142D01*
X132156000Y-96854075D01*
X132156000Y-96693925D01*
X132187242Y-96536858D01*
X132248529Y-96388899D01*
X132337499Y-96255745D01*
X132450745Y-96142499D01*
X132583899Y-96053529D01*
X132731858Y-95992242D01*
X132888925Y-95961000D01*
X133049075Y-95961000D01*
X133206142Y-95992242D01*
X133206142Y-95992242D01*
G37*
G36*
X156701142Y-95992242D02*
G01*
X156849101Y-96053529D01*
X156982255Y-96142499D01*
X157095501Y-96255745D01*
X157184471Y-96388899D01*
X157245758Y-96536858D01*
X157277000Y-96693925D01*
X157277000Y-96854075D01*
X157245758Y-97011142D01*
X157184471Y-97159101D01*
X157095501Y-97292255D01*
X156982255Y-97405501D01*
X156849101Y-97494471D01*
X156701142Y-97555758D01*
X156544075Y-97587000D01*
X156383925Y-97587000D01*
X156226858Y-97555758D01*
X156078899Y-97494471D01*
X155945745Y-97405501D01*
X155832499Y-97292255D01*
X155743529Y-97159101D01*
X155682242Y-97011142D01*
X155651000Y-96854075D01*
X155651000Y-96693925D01*
X155682242Y-96536858D01*
X155743529Y-96388899D01*
X155832499Y-96255745D01*
X155945745Y-96142499D01*
X156078899Y-96053529D01*
X156226858Y-95992242D01*
X156383925Y-95961000D01*
X156544075Y-95961000D01*
X156701142Y-95992242D01*
X156701142Y-95992242D01*
G37*
G36*
X160384442Y-94609518D02*
G01*
X160450627Y-94616037D01*
X160620466Y-94667557D01*
X160776991Y-94751222D01*
X160807853Y-94776550D01*
X160914186Y-94863814D01*
X160988585Y-94954471D01*
X161026778Y-95001009D01*
X161110443Y-95157534D01*
X161161963Y-95327373D01*
X161179359Y-95504000D01*
X161161963Y-95680627D01*
X161110443Y-95850466D01*
X161026778Y-96006991D01*
X160997448Y-96042729D01*
X160914186Y-96144186D01*
X160812729Y-96227448D01*
X160776991Y-96256778D01*
X160620466Y-96340443D01*
X160450627Y-96391963D01*
X160384442Y-96398482D01*
X160318260Y-96405000D01*
X160229740Y-96405000D01*
X160163558Y-96398482D01*
X160097373Y-96391963D01*
X159927534Y-96340443D01*
X159771009Y-96256778D01*
X159735271Y-96227448D01*
X159633814Y-96144186D01*
X159550552Y-96042729D01*
X159521222Y-96006991D01*
X159437557Y-95850466D01*
X159386037Y-95680627D01*
X159368641Y-95504000D01*
X159386037Y-95327373D01*
X159437557Y-95157534D01*
X159521222Y-95001009D01*
X159559415Y-94954471D01*
X159633814Y-94863814D01*
X159740147Y-94776550D01*
X159771009Y-94751222D01*
X159927534Y-94667557D01*
X160097373Y-94616037D01*
X160163558Y-94609518D01*
X160229740Y-94603000D01*
X160318260Y-94603000D01*
X160384442Y-94609518D01*
X160384442Y-94609518D01*
G37*
G36*
X145210669Y-92291686D02*
G01*
X145387058Y-92309059D01*
X145726548Y-92412042D01*
X145726550Y-92412043D01*
X146039422Y-92579277D01*
X146039424Y-92579278D01*
X146039423Y-92579278D01*
X146313661Y-92804339D01*
X146538722Y-93078577D01*
X146705958Y-93391452D01*
X146808941Y-93730942D01*
X146843714Y-94084000D01*
X146808941Y-94437058D01*
X146705958Y-94776548D01*
X146705957Y-94776550D01*
X146538723Y-95089422D01*
X146313661Y-95363661D01*
X146039422Y-95588723D01*
X145867482Y-95680627D01*
X145726548Y-95755958D01*
X145387058Y-95858941D01*
X145210669Y-95876314D01*
X145122476Y-95885000D01*
X144945524Y-95885000D01*
X144857331Y-95876314D01*
X144680942Y-95858941D01*
X144341452Y-95755958D01*
X144200518Y-95680627D01*
X144028578Y-95588723D01*
X143754339Y-95363661D01*
X143529277Y-95089422D01*
X143362043Y-94776550D01*
X143362042Y-94776548D01*
X143259059Y-94437058D01*
X143224286Y-94084000D01*
X143259059Y-93730942D01*
X143362042Y-93391452D01*
X143529278Y-93078577D01*
X143754339Y-92804339D01*
X144028577Y-92579278D01*
X144028576Y-92579278D01*
X144028578Y-92579277D01*
X144341450Y-92412043D01*
X144341452Y-92412042D01*
X144680942Y-92309059D01*
X144857331Y-92291686D01*
X144945524Y-92283000D01*
X145122476Y-92283000D01*
X145210669Y-92291686D01*
X145210669Y-92291686D01*
G37*
G36*
X156701142Y-93452242D02*
G01*
X156849101Y-93513529D01*
X156982255Y-93602499D01*
X157095501Y-93715745D01*
X157184471Y-93848899D01*
X157245758Y-93996858D01*
X157277000Y-94153925D01*
X157277000Y-94314075D01*
X157245758Y-94471142D01*
X157184471Y-94619101D01*
X157095501Y-94752255D01*
X156982255Y-94865501D01*
X156849101Y-94954471D01*
X156701142Y-95015758D01*
X156544075Y-95047000D01*
X156383925Y-95047000D01*
X156226858Y-95015758D01*
X156078899Y-94954471D01*
X155945745Y-94865501D01*
X155832499Y-94752255D01*
X155743529Y-94619101D01*
X155682242Y-94471142D01*
X155651000Y-94314075D01*
X155651000Y-94153925D01*
X155682242Y-93996858D01*
X155743529Y-93848899D01*
X155832499Y-93715745D01*
X155945745Y-93602499D01*
X156078899Y-93513529D01*
X156226858Y-93452242D01*
X156383925Y-93421000D01*
X156544075Y-93421000D01*
X156701142Y-93452242D01*
X156701142Y-93452242D01*
G37*
G36*
X133206142Y-93452242D02*
G01*
X133354101Y-93513529D01*
X133487255Y-93602499D01*
X133600501Y-93715745D01*
X133689471Y-93848899D01*
X133750758Y-93996858D01*
X133782000Y-94153925D01*
X133782000Y-94314075D01*
X133750758Y-94471142D01*
X133689471Y-94619101D01*
X133600501Y-94752255D01*
X133487255Y-94865501D01*
X133354101Y-94954471D01*
X133206142Y-95015758D01*
X133049075Y-95047000D01*
X132888925Y-95047000D01*
X132731858Y-95015758D01*
X132583899Y-94954471D01*
X132450745Y-94865501D01*
X132337499Y-94752255D01*
X132248529Y-94619101D01*
X132187242Y-94471142D01*
X132156000Y-94314075D01*
X132156000Y-94153925D01*
X132187242Y-93996858D01*
X132248529Y-93848899D01*
X132337499Y-93715745D01*
X132450745Y-93602499D01*
X132583899Y-93513529D01*
X132731858Y-93452242D01*
X132888925Y-93421000D01*
X133049075Y-93421000D01*
X133206142Y-93452242D01*
X133206142Y-93452242D01*
G37*
G36*
X160384443Y-92069519D02*
G01*
X160450627Y-92076037D01*
X160620466Y-92127557D01*
X160776991Y-92211222D01*
X160812729Y-92240552D01*
X160914186Y-92323814D01*
X160988585Y-92414471D01*
X161026778Y-92461009D01*
X161110443Y-92617534D01*
X161161963Y-92787373D01*
X161179359Y-92964000D01*
X161161963Y-93140627D01*
X161110443Y-93310466D01*
X161026778Y-93466991D01*
X160997448Y-93502729D01*
X160914186Y-93604186D01*
X160812729Y-93687448D01*
X160776991Y-93716778D01*
X160620466Y-93800443D01*
X160450627Y-93851963D01*
X160384443Y-93858481D01*
X160318260Y-93865000D01*
X160229740Y-93865000D01*
X160163557Y-93858481D01*
X160097373Y-93851963D01*
X159927534Y-93800443D01*
X159771009Y-93716778D01*
X159735271Y-93687448D01*
X159633814Y-93604186D01*
X159550552Y-93502729D01*
X159521222Y-93466991D01*
X159437557Y-93310466D01*
X159386037Y-93140627D01*
X159368641Y-92964000D01*
X159386037Y-92787373D01*
X159437557Y-92617534D01*
X159521222Y-92461009D01*
X159559415Y-92414471D01*
X159633814Y-92323814D01*
X159735271Y-92240552D01*
X159771009Y-92211222D01*
X159927534Y-92127557D01*
X160097373Y-92076037D01*
X160163557Y-92069519D01*
X160229740Y-92063000D01*
X160318260Y-92063000D01*
X160384443Y-92069519D01*
X160384443Y-92069519D01*
G37*
G36*
X156701142Y-90912242D02*
G01*
X156849101Y-90973529D01*
X156982255Y-91062499D01*
X157095501Y-91175745D01*
X157184471Y-91308899D01*
X157245758Y-91456858D01*
X157277000Y-91613925D01*
X157277000Y-91774075D01*
X157245758Y-91931142D01*
X157184471Y-92079101D01*
X157095501Y-92212255D01*
X156982255Y-92325501D01*
X156849101Y-92414471D01*
X156701142Y-92475758D01*
X156544075Y-92507000D01*
X156383925Y-92507000D01*
X156226858Y-92475758D01*
X156078899Y-92414471D01*
X155945745Y-92325501D01*
X155832499Y-92212255D01*
X155743529Y-92079101D01*
X155682242Y-91931142D01*
X155651000Y-91774075D01*
X155651000Y-91613925D01*
X155682242Y-91456858D01*
X155743529Y-91308899D01*
X155832499Y-91175745D01*
X155945745Y-91062499D01*
X156078899Y-90973529D01*
X156226858Y-90912242D01*
X156383925Y-90881000D01*
X156544075Y-90881000D01*
X156701142Y-90912242D01*
X156701142Y-90912242D01*
G37*
G36*
X133206142Y-90912242D02*
G01*
X133354101Y-90973529D01*
X133487255Y-91062499D01*
X133600501Y-91175745D01*
X133689471Y-91308899D01*
X133750758Y-91456858D01*
X133782000Y-91613925D01*
X133782000Y-91774075D01*
X133750758Y-91931142D01*
X133689471Y-92079101D01*
X133600501Y-92212255D01*
X133487255Y-92325501D01*
X133354101Y-92414471D01*
X133206142Y-92475758D01*
X133049075Y-92507000D01*
X132888925Y-92507000D01*
X132731858Y-92475758D01*
X132583899Y-92414471D01*
X132450745Y-92325501D01*
X132337499Y-92212255D01*
X132248529Y-92079101D01*
X132187242Y-91931142D01*
X132156000Y-91774075D01*
X132156000Y-91613925D01*
X132187242Y-91456858D01*
X132248529Y-91308899D01*
X132337499Y-91175745D01*
X132450745Y-91062499D01*
X132583899Y-90973529D01*
X132731858Y-90912242D01*
X132888925Y-90881000D01*
X133049075Y-90881000D01*
X133206142Y-90912242D01*
X133206142Y-90912242D01*
G37*
G36*
X156701142Y-88372242D02*
G01*
X156849101Y-88433529D01*
X156982255Y-88522499D01*
X157095501Y-88635745D01*
X157184471Y-88768899D01*
X157245758Y-88916858D01*
X157277000Y-89073925D01*
X157277000Y-89234075D01*
X157245758Y-89391142D01*
X157184471Y-89539101D01*
X157095501Y-89672255D01*
X156982255Y-89785501D01*
X156849101Y-89874471D01*
X156701142Y-89935758D01*
X156544075Y-89967000D01*
X156383925Y-89967000D01*
X156226858Y-89935758D01*
X156078899Y-89874471D01*
X155945745Y-89785501D01*
X155832499Y-89672255D01*
X155743529Y-89539101D01*
X155682242Y-89391142D01*
X155651000Y-89234075D01*
X155651000Y-89073925D01*
X155682242Y-88916858D01*
X155743529Y-88768899D01*
X155832499Y-88635745D01*
X155945745Y-88522499D01*
X156078899Y-88433529D01*
X156226858Y-88372242D01*
X156383925Y-88341000D01*
X156544075Y-88341000D01*
X156701142Y-88372242D01*
X156701142Y-88372242D01*
G37*
G36*
X133206142Y-88372242D02*
G01*
X133354101Y-88433529D01*
X133487255Y-88522499D01*
X133600501Y-88635745D01*
X133689471Y-88768899D01*
X133750758Y-88916858D01*
X133782000Y-89073925D01*
X133782000Y-89234075D01*
X133750758Y-89391142D01*
X133689471Y-89539101D01*
X133600501Y-89672255D01*
X133487255Y-89785501D01*
X133354101Y-89874471D01*
X133206142Y-89935758D01*
X133049075Y-89967000D01*
X132888925Y-89967000D01*
X132731858Y-89935758D01*
X132583899Y-89874471D01*
X132450745Y-89785501D01*
X132337499Y-89672255D01*
X132248529Y-89539101D01*
X132187242Y-89391142D01*
X132156000Y-89234075D01*
X132156000Y-89073925D01*
X132187242Y-88916858D01*
X132248529Y-88768899D01*
X132337499Y-88635745D01*
X132450745Y-88522499D01*
X132583899Y-88433529D01*
X132731858Y-88372242D01*
X132888925Y-88341000D01*
X133049075Y-88341000D01*
X133206142Y-88372242D01*
X133206142Y-88372242D01*
G37*
G36*
X161175000Y-87515000D02*
G01*
X159373000Y-87515000D01*
X159373000Y-85713000D01*
X161175000Y-85713000D01*
X161175000Y-87515000D01*
X161175000Y-87515000D01*
G37*
G36*
X156701142Y-85832242D02*
G01*
X156849101Y-85893529D01*
X156982255Y-85982499D01*
X157095501Y-86095745D01*
X157184471Y-86228899D01*
X157245758Y-86376858D01*
X157277000Y-86533925D01*
X157277000Y-86694075D01*
X157245758Y-86851142D01*
X157184471Y-86999101D01*
X157095501Y-87132255D01*
X156982255Y-87245501D01*
X156849101Y-87334471D01*
X156701142Y-87395758D01*
X156544075Y-87427000D01*
X156383925Y-87427000D01*
X156226858Y-87395758D01*
X156078899Y-87334471D01*
X155945745Y-87245501D01*
X155832499Y-87132255D01*
X155743529Y-86999101D01*
X155682242Y-86851142D01*
X155651000Y-86694075D01*
X155651000Y-86533925D01*
X155682242Y-86376858D01*
X155743529Y-86228899D01*
X155832499Y-86095745D01*
X155945745Y-85982499D01*
X156078899Y-85893529D01*
X156226858Y-85832242D01*
X156383925Y-85801000D01*
X156544075Y-85801000D01*
X156701142Y-85832242D01*
X156701142Y-85832242D01*
G37*
G36*
X133206142Y-85832242D02*
G01*
X133354101Y-85893529D01*
X133487255Y-85982499D01*
X133600501Y-86095745D01*
X133689471Y-86228899D01*
X133750758Y-86376858D01*
X133782000Y-86533925D01*
X133782000Y-86694075D01*
X133750758Y-86851142D01*
X133689471Y-86999101D01*
X133600501Y-87132255D01*
X133487255Y-87245501D01*
X133354101Y-87334471D01*
X133206142Y-87395758D01*
X133049075Y-87427000D01*
X132888925Y-87427000D01*
X132731858Y-87395758D01*
X132583899Y-87334471D01*
X132450745Y-87245501D01*
X132337499Y-87132255D01*
X132248529Y-86999101D01*
X132187242Y-86851142D01*
X132156000Y-86694075D01*
X132156000Y-86533925D01*
X132187242Y-86376858D01*
X132248529Y-86228899D01*
X132337499Y-86095745D01*
X132450745Y-85982499D01*
X132583899Y-85893529D01*
X132731858Y-85832242D01*
X132888925Y-85801000D01*
X133049075Y-85801000D01*
X133206142Y-85832242D01*
X133206142Y-85832242D01*
G37*
G36*
X160384442Y-83179518D02*
G01*
X160450627Y-83186037D01*
X160620466Y-83237557D01*
X160776991Y-83321222D01*
X160812729Y-83350552D01*
X160914186Y-83433814D01*
X160997448Y-83535271D01*
X161026778Y-83571009D01*
X161110443Y-83727534D01*
X161161963Y-83897373D01*
X161179359Y-84074000D01*
X161161963Y-84250627D01*
X161110443Y-84420466D01*
X161026778Y-84576991D01*
X161014251Y-84592255D01*
X160914186Y-84714186D01*
X160816357Y-84794471D01*
X160776991Y-84826778D01*
X160620466Y-84910443D01*
X160450627Y-84961963D01*
X160384442Y-84968482D01*
X160318260Y-84975000D01*
X160229740Y-84975000D01*
X160163558Y-84968482D01*
X160097373Y-84961963D01*
X159927534Y-84910443D01*
X159771009Y-84826778D01*
X159731643Y-84794471D01*
X159633814Y-84714186D01*
X159533749Y-84592255D01*
X159521222Y-84576991D01*
X159437557Y-84420466D01*
X159386037Y-84250627D01*
X159368641Y-84074000D01*
X159386037Y-83897373D01*
X159437557Y-83727534D01*
X159521222Y-83571009D01*
X159550552Y-83535271D01*
X159633814Y-83433814D01*
X159735271Y-83350552D01*
X159771009Y-83321222D01*
X159927534Y-83237557D01*
X160097373Y-83186037D01*
X160163558Y-83179518D01*
X160229740Y-83173000D01*
X160318260Y-83173000D01*
X160384442Y-83179518D01*
X160384442Y-83179518D01*
G37*
G36*
X156701142Y-83292242D02*
G01*
X156849101Y-83353529D01*
X156982255Y-83442499D01*
X157095501Y-83555745D01*
X157184471Y-83688899D01*
X157245758Y-83836858D01*
X157277000Y-83993925D01*
X157277000Y-84154075D01*
X157245758Y-84311142D01*
X157184471Y-84459101D01*
X157095501Y-84592255D01*
X156982255Y-84705501D01*
X156849101Y-84794471D01*
X156701142Y-84855758D01*
X156544075Y-84887000D01*
X156383925Y-84887000D01*
X156226858Y-84855758D01*
X156078899Y-84794471D01*
X155945745Y-84705501D01*
X155832499Y-84592255D01*
X155743529Y-84459101D01*
X155682242Y-84311142D01*
X155651000Y-84154075D01*
X155651000Y-83993925D01*
X155682242Y-83836858D01*
X155743529Y-83688899D01*
X155832499Y-83555745D01*
X155945745Y-83442499D01*
X156078899Y-83353529D01*
X156226858Y-83292242D01*
X156383925Y-83261000D01*
X156544075Y-83261000D01*
X156701142Y-83292242D01*
X156701142Y-83292242D01*
G37*
G36*
X133206142Y-83292242D02*
G01*
X133354101Y-83353529D01*
X133487255Y-83442499D01*
X133600501Y-83555745D01*
X133689471Y-83688899D01*
X133750758Y-83836858D01*
X133782000Y-83993925D01*
X133782000Y-84154075D01*
X133750758Y-84311142D01*
X133689471Y-84459101D01*
X133600501Y-84592255D01*
X133487255Y-84705501D01*
X133354101Y-84794471D01*
X133206142Y-84855758D01*
X133049075Y-84887000D01*
X132888925Y-84887000D01*
X132731858Y-84855758D01*
X132583899Y-84794471D01*
X132450745Y-84705501D01*
X132337499Y-84592255D01*
X132248529Y-84459101D01*
X132187242Y-84311142D01*
X132156000Y-84154075D01*
X132156000Y-83993925D01*
X132187242Y-83836858D01*
X132248529Y-83688899D01*
X132337499Y-83555745D01*
X132450745Y-83442499D01*
X132583899Y-83353529D01*
X132731858Y-83292242D01*
X132888925Y-83261000D01*
X133049075Y-83261000D01*
X133206142Y-83292242D01*
X133206142Y-83292242D01*
G37*
G36*
X160384443Y-80639519D02*
G01*
X160450627Y-80646037D01*
X160620466Y-80697557D01*
X160776991Y-80781222D01*
X160812729Y-80810552D01*
X160914186Y-80893814D01*
X160997448Y-80995271D01*
X161026778Y-81031009D01*
X161110443Y-81187534D01*
X161161963Y-81357373D01*
X161179359Y-81534000D01*
X161161963Y-81710627D01*
X161110443Y-81880466D01*
X161026778Y-82036991D01*
X160997448Y-82072729D01*
X160914186Y-82174186D01*
X160812729Y-82257448D01*
X160776991Y-82286778D01*
X160620466Y-82370443D01*
X160450627Y-82421963D01*
X160384443Y-82428481D01*
X160318260Y-82435000D01*
X160229740Y-82435000D01*
X160163557Y-82428481D01*
X160097373Y-82421963D01*
X159927534Y-82370443D01*
X159771009Y-82286778D01*
X159735271Y-82257448D01*
X159633814Y-82174186D01*
X159550552Y-82072729D01*
X159521222Y-82036991D01*
X159437557Y-81880466D01*
X159386037Y-81710627D01*
X159368641Y-81534000D01*
X159386037Y-81357373D01*
X159437557Y-81187534D01*
X159521222Y-81031009D01*
X159550552Y-80995271D01*
X159633814Y-80893814D01*
X159735271Y-80810552D01*
X159771009Y-80781222D01*
X159927534Y-80697557D01*
X160097373Y-80646037D01*
X160163557Y-80639519D01*
X160229740Y-80633000D01*
X160318260Y-80633000D01*
X160384443Y-80639519D01*
X160384443Y-80639519D01*
G37*
G36*
X160384442Y-78099518D02*
G01*
X160450627Y-78106037D01*
X160620466Y-78157557D01*
X160776991Y-78241222D01*
X160812729Y-78270552D01*
X160914186Y-78353814D01*
X160997448Y-78455271D01*
X161026778Y-78491009D01*
X161110443Y-78647534D01*
X161161963Y-78817373D01*
X161179359Y-78994000D01*
X161161963Y-79170627D01*
X161110443Y-79340466D01*
X161026778Y-79496991D01*
X160997448Y-79532729D01*
X160914186Y-79634186D01*
X160812729Y-79717448D01*
X160776991Y-79746778D01*
X160620466Y-79830443D01*
X160450627Y-79881963D01*
X160384443Y-79888481D01*
X160318260Y-79895000D01*
X160229740Y-79895000D01*
X160163557Y-79888481D01*
X160097373Y-79881963D01*
X159927534Y-79830443D01*
X159771009Y-79746778D01*
X159735271Y-79717448D01*
X159633814Y-79634186D01*
X159550552Y-79532729D01*
X159521222Y-79496991D01*
X159437557Y-79340466D01*
X159386037Y-79170627D01*
X159368641Y-78994000D01*
X159386037Y-78817373D01*
X159437557Y-78647534D01*
X159521222Y-78491009D01*
X159550552Y-78455271D01*
X159633814Y-78353814D01*
X159735271Y-78270552D01*
X159771009Y-78241222D01*
X159927534Y-78157557D01*
X160097373Y-78106037D01*
X160163558Y-78099518D01*
X160229740Y-78093000D01*
X160318260Y-78093000D01*
X160384442Y-78099518D01*
X160384442Y-78099518D01*
G37*
M02*
