G04 #@! TF.GenerationSoftware,KiCad,Pcbnew,5.1.3-ffb9f22~84~ubuntu16.04.1*
G04 #@! TF.CreationDate,2019-07-29T14:43:33+10:00*
G04 #@! TF.ProjectId,tankmon-pcb,74616e6b-6d6f-46e2-9d70-63622e6b6963,1a*
G04 #@! TF.SameCoordinates,Original*
G04 #@! TF.FileFunction,Copper,L1,Top*
G04 #@! TF.FilePolarity,Positive*
%FSLAX46Y46*%
G04 Gerber Fmt 4.6, Leading zero omitted, Abs format (unit mm)*
G04 Created by KiCad (PCBNEW 5.1.3-ffb9f22~84~ubuntu16.04.1) date 2019-07-29 14:43:33*
%MOMM*%
%LPD*%
G04 APERTURE LIST*
%ADD10C,1.524000*%
%ADD11O,1.905000X2.000000*%
%ADD12R,1.905000X2.000000*%
%ADD13C,1.500000*%
%ADD14R,1.500000X1.500000*%
%ADD15O,1.700000X1.700000*%
%ADD16R,1.700000X1.700000*%
%ADD17C,0.100000*%
%ADD18C,3.500000*%
%ADD19C,3.000000*%
%ADD20R,3.500000X3.500000*%
%ADD21C,1.200000*%
%ADD22C,0.800000*%
%ADD23C,0.250000*%
G04 APERTURE END LIST*
D10*
X132969000Y-84074000D03*
X132969000Y-86614000D03*
X132969000Y-89154000D03*
X132969000Y-91694000D03*
X132969000Y-94234000D03*
X132969000Y-96774000D03*
X132969000Y-99314000D03*
X132969000Y-101854000D03*
X132969000Y-104394000D03*
X132969000Y-106934000D03*
X132969000Y-109474000D03*
X132969000Y-112014000D03*
X132969000Y-114554000D03*
X132969000Y-117094000D03*
X132969000Y-119634000D03*
X156464000Y-119634000D03*
X156464000Y-117094000D03*
X156464000Y-114554000D03*
X156464000Y-112014000D03*
X156464000Y-109474000D03*
X156464000Y-106934000D03*
X156464000Y-104394000D03*
X156464000Y-101854000D03*
X156464000Y-99314000D03*
X156464000Y-96774000D03*
X156464000Y-94234000D03*
X156464000Y-91694000D03*
X156464000Y-89154000D03*
X156464000Y-86614000D03*
X156464000Y-84074000D03*
D11*
X142494000Y-110744000D03*
X145034000Y-110744000D03*
D12*
X147574000Y-110744000D03*
D13*
X160274000Y-108204000D03*
X160274000Y-110744000D03*
X160274000Y-113284000D03*
D14*
X160274000Y-115824000D03*
D15*
X160274000Y-92964000D03*
X160274000Y-95504000D03*
X160274000Y-98044000D03*
D16*
X160274000Y-100584000D03*
D15*
X160274000Y-78994000D03*
X160274000Y-81534000D03*
X160274000Y-84074000D03*
D16*
X160274000Y-86614000D03*
D17*
G36*
X146454765Y-113188213D02*
G01*
X146539704Y-113200813D01*
X146622999Y-113221677D01*
X146703848Y-113250605D01*
X146781472Y-113287319D01*
X146855124Y-113331464D01*
X146924094Y-113382616D01*
X146987718Y-113440282D01*
X147045384Y-113503906D01*
X147096536Y-113572876D01*
X147140681Y-113646528D01*
X147177395Y-113724152D01*
X147206323Y-113805001D01*
X147227187Y-113888296D01*
X147239787Y-113973235D01*
X147244000Y-114059000D01*
X147244000Y-115809000D01*
X147239787Y-115894765D01*
X147227187Y-115979704D01*
X147206323Y-116062999D01*
X147177395Y-116143848D01*
X147140681Y-116221472D01*
X147096536Y-116295124D01*
X147045384Y-116364094D01*
X146987718Y-116427718D01*
X146924094Y-116485384D01*
X146855124Y-116536536D01*
X146781472Y-116580681D01*
X146703848Y-116617395D01*
X146622999Y-116646323D01*
X146539704Y-116667187D01*
X146454765Y-116679787D01*
X146369000Y-116684000D01*
X144619000Y-116684000D01*
X144533235Y-116679787D01*
X144448296Y-116667187D01*
X144365001Y-116646323D01*
X144284152Y-116617395D01*
X144206528Y-116580681D01*
X144132876Y-116536536D01*
X144063906Y-116485384D01*
X144000282Y-116427718D01*
X143942616Y-116364094D01*
X143891464Y-116295124D01*
X143847319Y-116221472D01*
X143810605Y-116143848D01*
X143781677Y-116062999D01*
X143760813Y-115979704D01*
X143748213Y-115894765D01*
X143744000Y-115809000D01*
X143744000Y-114059000D01*
X143748213Y-113973235D01*
X143760813Y-113888296D01*
X143781677Y-113805001D01*
X143810605Y-113724152D01*
X143847319Y-113646528D01*
X143891464Y-113572876D01*
X143942616Y-113503906D01*
X144000282Y-113440282D01*
X144063906Y-113382616D01*
X144132876Y-113331464D01*
X144206528Y-113287319D01*
X144284152Y-113250605D01*
X144365001Y-113221677D01*
X144448296Y-113200813D01*
X144533235Y-113188213D01*
X144619000Y-113184000D01*
X146369000Y-113184000D01*
X146454765Y-113188213D01*
X146454765Y-113188213D01*
G37*
D18*
X145494000Y-114934000D03*
D17*
G36*
X143317513Y-117887611D02*
G01*
X143390318Y-117898411D01*
X143461714Y-117916295D01*
X143531013Y-117941090D01*
X143597548Y-117972559D01*
X143660678Y-118010398D01*
X143719795Y-118054242D01*
X143774330Y-118103670D01*
X143823758Y-118158205D01*
X143867602Y-118217322D01*
X143905441Y-118280452D01*
X143936910Y-118346987D01*
X143961705Y-118416286D01*
X143979589Y-118487682D01*
X143990389Y-118560487D01*
X143994000Y-118634000D01*
X143994000Y-120634000D01*
X143990389Y-120707513D01*
X143979589Y-120780318D01*
X143961705Y-120851714D01*
X143936910Y-120921013D01*
X143905441Y-120987548D01*
X143867602Y-121050678D01*
X143823758Y-121109795D01*
X143774330Y-121164330D01*
X143719795Y-121213758D01*
X143660678Y-121257602D01*
X143597548Y-121295441D01*
X143531013Y-121326910D01*
X143461714Y-121351705D01*
X143390318Y-121369589D01*
X143317513Y-121380389D01*
X143244000Y-121384000D01*
X141744000Y-121384000D01*
X141670487Y-121380389D01*
X141597682Y-121369589D01*
X141526286Y-121351705D01*
X141456987Y-121326910D01*
X141390452Y-121295441D01*
X141327322Y-121257602D01*
X141268205Y-121213758D01*
X141213670Y-121164330D01*
X141164242Y-121109795D01*
X141120398Y-121050678D01*
X141082559Y-120987548D01*
X141051090Y-120921013D01*
X141026295Y-120851714D01*
X141008411Y-120780318D01*
X140997611Y-120707513D01*
X140994000Y-120634000D01*
X140994000Y-118634000D01*
X140997611Y-118560487D01*
X141008411Y-118487682D01*
X141026295Y-118416286D01*
X141051090Y-118346987D01*
X141082559Y-118280452D01*
X141120398Y-118217322D01*
X141164242Y-118158205D01*
X141213670Y-118103670D01*
X141268205Y-118054242D01*
X141327322Y-118010398D01*
X141390452Y-117972559D01*
X141456987Y-117941090D01*
X141526286Y-117916295D01*
X141597682Y-117898411D01*
X141670487Y-117887611D01*
X141744000Y-117884000D01*
X143244000Y-117884000D01*
X143317513Y-117887611D01*
X143317513Y-117887611D01*
G37*
D19*
X142494000Y-119634000D03*
D20*
X148494000Y-119634000D03*
D21*
X138144000Y-110744000D03*
X136144000Y-110744000D03*
X153384000Y-110744000D03*
X151384000Y-110744000D03*
D22*
X152146000Y-81280000D03*
X150114000Y-87884000D03*
X136398000Y-92964000D03*
X141986000Y-89916000D03*
X149098000Y-91948000D03*
X138938000Y-90932000D03*
X143510000Y-80772000D03*
X136398000Y-97028000D03*
X143510000Y-84836000D03*
X148590000Y-84836000D03*
X149860000Y-81534000D03*
X160020000Y-89662000D03*
X158242000Y-93218000D03*
X146558000Y-85852000D03*
X150622000Y-104394000D03*
X145542000Y-87884000D03*
X138938000Y-80772000D03*
X148590000Y-80264000D03*
X148590000Y-86868000D03*
X150622000Y-101092000D03*
X154651999Y-102616000D03*
X151892000Y-92202000D03*
X149606000Y-92964000D03*
X149098000Y-101092000D03*
X135128000Y-102870000D03*
D23*
X150114000Y-83312000D02*
X150114000Y-87884000D01*
X152146000Y-81280000D02*
X150114000Y-83312000D01*
X139446000Y-89916000D02*
X141986000Y-89916000D01*
X136398000Y-92964000D02*
X139446000Y-89916000D01*
X150804999Y-90241001D02*
X149098000Y-91948000D01*
X160274000Y-84074000D02*
X157551001Y-86796999D01*
X157551001Y-86796999D02*
X157551001Y-89675761D01*
X157551001Y-89675761D02*
X156985761Y-90241001D01*
X156985761Y-90241001D02*
X150804999Y-90241001D01*
X139446000Y-90424000D02*
X139446000Y-89916000D01*
X138938000Y-90932000D02*
X139446000Y-90424000D01*
X157310762Y-96012000D02*
X159766000Y-96012000D01*
X156985761Y-95686999D02*
X157310762Y-96012000D01*
X159766000Y-96012000D02*
X160274000Y-95504000D01*
X151255997Y-95686999D02*
X156985761Y-95686999D01*
X143510000Y-80772000D02*
X145034000Y-82296000D01*
X144816999Y-86519999D02*
X144816999Y-89248001D01*
X145034000Y-86302998D02*
X144816999Y-86519999D01*
X145034000Y-82296000D02*
X145034000Y-86302998D01*
X144816999Y-89248001D02*
X145005499Y-89436501D01*
X145005499Y-89436501D02*
X151255997Y-95686999D01*
X143510000Y-89916000D02*
X143510000Y-84836000D01*
X136398000Y-97028000D02*
X143510000Y-89916000D01*
X149606000Y-83820000D02*
X148590000Y-84836000D01*
X149606000Y-81788000D02*
X149606000Y-83820000D01*
X158242000Y-91440000D02*
X158242000Y-93218000D01*
X160020000Y-89662000D02*
X158242000Y-91440000D01*
X149860000Y-81534000D02*
X149606000Y-81788000D01*
X146558000Y-85852000D02*
X145542000Y-84836000D01*
X153670000Y-83820000D02*
X156464000Y-86614000D01*
X153670000Y-81730998D02*
X153670000Y-83820000D01*
X151478001Y-79538999D02*
X153670000Y-81730998D01*
X145542000Y-84836000D02*
X145542000Y-82238998D01*
X145542000Y-82238998D02*
X148241999Y-79538999D01*
X148241999Y-79538999D02*
X151478001Y-79538999D01*
X148851501Y-112021501D02*
X148851501Y-106418499D01*
X156464000Y-119634000D02*
X148851501Y-112021501D01*
X150622000Y-104648000D02*
X150622000Y-104394000D01*
X148851501Y-106418499D02*
X150622000Y-104648000D01*
X145796000Y-89154000D02*
X156464000Y-89154000D01*
X145796000Y-89154000D02*
X145542000Y-88900000D01*
X145542000Y-88900000D02*
X145542000Y-87884000D01*
X138938000Y-80772000D02*
X141986000Y-80772000D01*
X144366989Y-83152989D02*
X144366989Y-90264989D01*
X141986000Y-80772000D02*
X144366989Y-83152989D01*
X155702001Y-103632001D02*
X156464000Y-104394000D01*
X155376999Y-101274999D02*
X155376999Y-103306999D01*
X155376999Y-103306999D02*
X155702001Y-103632001D01*
X144366989Y-90264989D02*
X155376999Y-101274999D01*
X147864999Y-86142999D02*
X148590000Y-86868000D01*
X147864999Y-80989001D02*
X147864999Y-86142999D01*
X148590000Y-80264000D02*
X147864999Y-80989001D01*
X152146000Y-102616000D02*
X154651999Y-102616000D01*
X150622000Y-101092000D02*
X152146000Y-102616000D01*
X151130000Y-92964000D02*
X149606000Y-92964000D01*
X151892000Y-92202000D02*
X151130000Y-92964000D01*
X140716000Y-109474000D02*
X132969000Y-109474000D01*
X149098000Y-101092000D02*
X140716000Y-109474000D01*
X156464000Y-82996370D02*
X156464000Y-84074000D01*
X152556620Y-79088990D02*
X156464000Y-82996370D01*
X139548008Y-79088990D02*
X152556620Y-79088990D01*
X135128000Y-83508998D02*
X139548008Y-79088990D01*
X135128000Y-102870000D02*
X135128000Y-83508998D01*
M02*
