G04 #@! TF.GenerationSoftware,KiCad,Pcbnew,5.1.3-ffb9f22~84~ubuntu16.04.1*
G04 #@! TF.CreationDate,2019-07-29T14:43:33+10:00*
G04 #@! TF.ProjectId,tankmon-pcb,74616e6b-6d6f-46e2-9d70-63622e6b6963,1a*
G04 #@! TF.SameCoordinates,Original*
G04 #@! TF.FileFunction,Legend,Top*
G04 #@! TF.FilePolarity,Positive*
%FSLAX46Y46*%
G04 Gerber Fmt 4.6, Leading zero omitted, Abs format (unit mm)*
G04 Created by KiCad (PCBNEW 5.1.3-ffb9f22~84~ubuntu16.04.1) date 2019-07-29 14:43:33*
%MOMM*%
%LPD*%
G04 APERTURE LIST*
%ADD10C,0.150000*%
G04 APERTURE END LIST*
D10*
X141201523Y-122912714D02*
X141201523Y-123722238D01*
X141153904Y-123817476D01*
X141106285Y-123865095D01*
X141011047Y-123912714D01*
X140868190Y-123912714D01*
X140772952Y-123865095D01*
X141201523Y-123531761D02*
X141106285Y-123579380D01*
X140915809Y-123579380D01*
X140820571Y-123531761D01*
X140772952Y-123484142D01*
X140725333Y-123388904D01*
X140725333Y-123103190D01*
X140772952Y-123007952D01*
X140820571Y-122960333D01*
X140915809Y-122912714D01*
X141106285Y-122912714D01*
X141201523Y-122960333D01*
X141677714Y-123579380D02*
X141677714Y-122912714D01*
X141677714Y-122579380D02*
X141630095Y-122627000D01*
X141677714Y-122674619D01*
X141725333Y-122627000D01*
X141677714Y-122579380D01*
X141677714Y-122674619D01*
X142011047Y-122912714D02*
X142392000Y-122912714D01*
X142153904Y-122579380D02*
X142153904Y-123436523D01*
X142201523Y-123531761D01*
X142296761Y-123579380D01*
X142392000Y-123579380D01*
X142725333Y-123579380D02*
X142725333Y-122579380D01*
X143153904Y-123579380D02*
X143153904Y-123055571D01*
X143106285Y-122960333D01*
X143011047Y-122912714D01*
X142868190Y-122912714D01*
X142772952Y-122960333D01*
X142725333Y-123007952D01*
X144058666Y-122912714D02*
X144058666Y-123579380D01*
X143630095Y-122912714D02*
X143630095Y-123436523D01*
X143677714Y-123531761D01*
X143772952Y-123579380D01*
X143915809Y-123579380D01*
X144011047Y-123531761D01*
X144058666Y-123484142D01*
X144534857Y-123579380D02*
X144534857Y-122579380D01*
X144534857Y-122960333D02*
X144630095Y-122912714D01*
X144820571Y-122912714D01*
X144915809Y-122960333D01*
X144963428Y-123007952D01*
X145011047Y-123103190D01*
X145011047Y-123388904D01*
X144963428Y-123484142D01*
X144915809Y-123531761D01*
X144820571Y-123579380D01*
X144630095Y-123579380D01*
X144534857Y-123531761D01*
X145439619Y-123484142D02*
X145487238Y-123531761D01*
X145439619Y-123579380D01*
X145392000Y-123531761D01*
X145439619Y-123484142D01*
X145439619Y-123579380D01*
X146344380Y-123531761D02*
X146249142Y-123579380D01*
X146058666Y-123579380D01*
X145963428Y-123531761D01*
X145915809Y-123484142D01*
X145868190Y-123388904D01*
X145868190Y-123103190D01*
X145915809Y-123007952D01*
X145963428Y-122960333D01*
X146058666Y-122912714D01*
X146249142Y-122912714D01*
X146344380Y-122960333D01*
X146915809Y-123579380D02*
X146820571Y-123531761D01*
X146772952Y-123484142D01*
X146725333Y-123388904D01*
X146725333Y-123103190D01*
X146772952Y-123007952D01*
X146820571Y-122960333D01*
X146915809Y-122912714D01*
X147058666Y-122912714D01*
X147153904Y-122960333D01*
X147201523Y-123007952D01*
X147249142Y-123103190D01*
X147249142Y-123388904D01*
X147201523Y-123484142D01*
X147153904Y-123531761D01*
X147058666Y-123579380D01*
X146915809Y-123579380D01*
X147677714Y-123579380D02*
X147677714Y-122912714D01*
X147677714Y-123007952D02*
X147725333Y-122960333D01*
X147820571Y-122912714D01*
X147963428Y-122912714D01*
X148058666Y-122960333D01*
X148106285Y-123055571D01*
X148106285Y-123579380D01*
X148106285Y-123055571D02*
X148153904Y-122960333D01*
X148249142Y-122912714D01*
X148392000Y-122912714D01*
X148487238Y-122960333D01*
X148534857Y-123055571D01*
X148534857Y-123579380D01*
X149725333Y-122531761D02*
X148868190Y-123817476D01*
X149915809Y-122912714D02*
X150296761Y-122912714D01*
X150058666Y-123579380D02*
X150058666Y-122722238D01*
X150106285Y-122627000D01*
X150201523Y-122579380D01*
X150296761Y-122579380D01*
X150630095Y-123579380D02*
X150630095Y-122912714D01*
X150630095Y-123103190D02*
X150677714Y-123007952D01*
X150725333Y-122960333D01*
X150820571Y-122912714D01*
X150915809Y-122912714D01*
X151630095Y-123531761D02*
X151534857Y-123579380D01*
X151344380Y-123579380D01*
X151249142Y-123531761D01*
X151201523Y-123436523D01*
X151201523Y-123055571D01*
X151249142Y-122960333D01*
X151344380Y-122912714D01*
X151534857Y-122912714D01*
X151630095Y-122960333D01*
X151677714Y-123055571D01*
X151677714Y-123150809D01*
X151201523Y-123246047D01*
X152106285Y-123579380D02*
X152106285Y-122579380D01*
X152106285Y-122960333D02*
X152201523Y-122912714D01*
X152392000Y-122912714D01*
X152487238Y-122960333D01*
X152534857Y-123007952D01*
X152582476Y-123103190D01*
X152582476Y-123388904D01*
X152534857Y-123484142D01*
X152487238Y-123531761D01*
X152392000Y-123579380D01*
X152201523Y-123579380D01*
X152106285Y-123531761D01*
X153011047Y-123579380D02*
X153011047Y-122579380D01*
X153011047Y-122960333D02*
X153106285Y-122912714D01*
X153296761Y-122912714D01*
X153392000Y-122960333D01*
X153439619Y-123007952D01*
X153487238Y-123103190D01*
X153487238Y-123388904D01*
X153439619Y-123484142D01*
X153392000Y-123531761D01*
X153296761Y-123579380D01*
X153106285Y-123579380D01*
X153011047Y-123531761D01*
X154058666Y-123579380D02*
X153963428Y-123531761D01*
X153915809Y-123436523D01*
X153915809Y-122579380D01*
X154820571Y-123531761D02*
X154725333Y-123579380D01*
X154534857Y-123579380D01*
X154439619Y-123531761D01*
X154392000Y-123436523D01*
X154392000Y-123055571D01*
X154439619Y-122960333D01*
X154534857Y-122912714D01*
X154725333Y-122912714D01*
X154820571Y-122960333D01*
X154868190Y-123055571D01*
X154868190Y-123150809D01*
X154392000Y-123246047D01*
X155249142Y-123531761D02*
X155344380Y-123579380D01*
X155534857Y-123579380D01*
X155630095Y-123531761D01*
X155677714Y-123436523D01*
X155677714Y-123388904D01*
X155630095Y-123293666D01*
X155534857Y-123246047D01*
X155392000Y-123246047D01*
X155296761Y-123198428D01*
X155249142Y-123103190D01*
X155249142Y-123055571D01*
X155296761Y-122960333D01*
X155392000Y-122912714D01*
X155534857Y-122912714D01*
X155630095Y-122960333D01*
X156820571Y-122531761D02*
X155963428Y-123817476D01*
X157011047Y-122912714D02*
X157392000Y-122912714D01*
X157153904Y-122579380D02*
X157153904Y-123436523D01*
X157201523Y-123531761D01*
X157296761Y-123579380D01*
X157392000Y-123579380D01*
X158153904Y-123579380D02*
X158153904Y-123055571D01*
X158106285Y-122960333D01*
X158011047Y-122912714D01*
X157820571Y-122912714D01*
X157725333Y-122960333D01*
X158153904Y-123531761D02*
X158058666Y-123579380D01*
X157820571Y-123579380D01*
X157725333Y-123531761D01*
X157677714Y-123436523D01*
X157677714Y-123341285D01*
X157725333Y-123246047D01*
X157820571Y-123198428D01*
X158058666Y-123198428D01*
X158153904Y-123150809D01*
X158630095Y-122912714D02*
X158630095Y-123579380D01*
X158630095Y-123007952D02*
X158677714Y-122960333D01*
X158772952Y-122912714D01*
X158915809Y-122912714D01*
X159011047Y-122960333D01*
X159058666Y-123055571D01*
X159058666Y-123579380D01*
X159534857Y-123579380D02*
X159534857Y-122579380D01*
X159630095Y-123198428D02*
X159915809Y-123579380D01*
X159915809Y-122912714D02*
X159534857Y-123293666D01*
X160344380Y-123579380D02*
X160344380Y-122912714D01*
X160344380Y-123007952D02*
X160392000Y-122960333D01*
X160487238Y-122912714D01*
X160630095Y-122912714D01*
X160725333Y-122960333D01*
X160772952Y-123055571D01*
X160772952Y-123579380D01*
X160772952Y-123055571D02*
X160820571Y-122960333D01*
X160915809Y-122912714D01*
X161058666Y-122912714D01*
X161153904Y-122960333D01*
X161201523Y-123055571D01*
X161201523Y-123579380D01*
X161820571Y-123579380D02*
X161725333Y-123531761D01*
X161677714Y-123484142D01*
X161630095Y-123388904D01*
X161630095Y-123103190D01*
X161677714Y-123007952D01*
X161725333Y-122960333D01*
X161820571Y-122912714D01*
X161963428Y-122912714D01*
X162058666Y-122960333D01*
X162106285Y-123007952D01*
X162153904Y-123103190D01*
X162153904Y-123388904D01*
X162106285Y-123484142D01*
X162058666Y-123531761D01*
X161963428Y-123579380D01*
X161820571Y-123579380D01*
X162582476Y-122912714D02*
X162582476Y-123579380D01*
X162582476Y-123007952D02*
X162630095Y-122960333D01*
X162725333Y-122912714D01*
X162868190Y-122912714D01*
X162963428Y-122960333D01*
X163011047Y-123055571D01*
X163011047Y-123579380D01*
X146963428Y-125229380D02*
X146963428Y-124229380D01*
X146963428Y-124610333D02*
X147058666Y-124562714D01*
X147249142Y-124562714D01*
X147344380Y-124610333D01*
X147392000Y-124657952D01*
X147439619Y-124753190D01*
X147439619Y-125038904D01*
X147392000Y-125134142D01*
X147344380Y-125181761D01*
X147249142Y-125229380D01*
X147058666Y-125229380D01*
X146963428Y-125181761D01*
X148011047Y-125229380D02*
X147915809Y-125181761D01*
X147868190Y-125134142D01*
X147820571Y-125038904D01*
X147820571Y-124753190D01*
X147868190Y-124657952D01*
X147915809Y-124610333D01*
X148011047Y-124562714D01*
X148153904Y-124562714D01*
X148249142Y-124610333D01*
X148296761Y-124657952D01*
X148344380Y-124753190D01*
X148344380Y-125038904D01*
X148296761Y-125134142D01*
X148249142Y-125181761D01*
X148153904Y-125229380D01*
X148011047Y-125229380D01*
X149201523Y-125229380D02*
X149201523Y-124705571D01*
X149153904Y-124610333D01*
X149058666Y-124562714D01*
X148868190Y-124562714D01*
X148772952Y-124610333D01*
X149201523Y-125181761D02*
X149106285Y-125229380D01*
X148868190Y-125229380D01*
X148772952Y-125181761D01*
X148725333Y-125086523D01*
X148725333Y-124991285D01*
X148772952Y-124896047D01*
X148868190Y-124848428D01*
X149106285Y-124848428D01*
X149201523Y-124800809D01*
X149677714Y-125229380D02*
X149677714Y-124562714D01*
X149677714Y-124753190D02*
X149725333Y-124657952D01*
X149772952Y-124610333D01*
X149868190Y-124562714D01*
X149963428Y-124562714D01*
X150725333Y-125229380D02*
X150725333Y-124229380D01*
X150725333Y-125181761D02*
X150630095Y-125229380D01*
X150439619Y-125229380D01*
X150344380Y-125181761D01*
X150296761Y-125134142D01*
X150249142Y-125038904D01*
X150249142Y-124753190D01*
X150296761Y-124657952D01*
X150344380Y-124610333D01*
X150439619Y-124562714D01*
X150630095Y-124562714D01*
X150725333Y-124610333D01*
X151963428Y-125229380D02*
X151963428Y-124562714D01*
X151963428Y-124753190D02*
X152011047Y-124657952D01*
X152058666Y-124610333D01*
X152153904Y-124562714D01*
X152249142Y-124562714D01*
X152963428Y-125181761D02*
X152868190Y-125229380D01*
X152677714Y-125229380D01*
X152582476Y-125181761D01*
X152534857Y-125086523D01*
X152534857Y-124705571D01*
X152582476Y-124610333D01*
X152677714Y-124562714D01*
X152868190Y-124562714D01*
X152963428Y-124610333D01*
X153011047Y-124705571D01*
X153011047Y-124800809D01*
X152534857Y-124896047D01*
X153344380Y-124562714D02*
X153582476Y-125229380D01*
X153820571Y-124562714D01*
X154201523Y-124848428D02*
X154963428Y-124848428D01*
X155963428Y-125229380D02*
X155392000Y-125229380D01*
X155677714Y-125229380D02*
X155677714Y-124229380D01*
X155582476Y-124372238D01*
X155487238Y-124467476D01*
X155392000Y-124515095D01*
X156820571Y-125229380D02*
X156820571Y-124705571D01*
X156772952Y-124610333D01*
X156677714Y-124562714D01*
X156487238Y-124562714D01*
X156392000Y-124610333D01*
X156820571Y-125181761D02*
X156725333Y-125229380D01*
X156487238Y-125229380D01*
X156392000Y-125181761D01*
X156344380Y-125086523D01*
X156344380Y-124991285D01*
X156392000Y-124896047D01*
X156487238Y-124848428D01*
X156725333Y-124848428D01*
X156820571Y-124800809D01*
X150534000Y-84854000D02*
X139534000Y-84854000D01*
X150534000Y-77724000D02*
X150534000Y-84854000D01*
X139534000Y-84854000D02*
X139534000Y-77724000D01*
X132969000Y-77724000D02*
G75*
G03X131699000Y-78994000I0J-1270000D01*
G01*
X157734000Y-78994000D02*
G75*
G03X156464000Y-77724000I-1270000J0D01*
G01*
X131699000Y-124714000D02*
G75*
G03X132969000Y-125984000I1270000J0D01*
G01*
X131699000Y-78994000D02*
X131699000Y-124714000D01*
X141224000Y-125984000D02*
X132969000Y-125984000D01*
X136035051Y-123444000D02*
G75*
G03X136035051Y-123444000I-1796051J0D01*
G01*
X136035051Y-80264000D02*
G75*
G03X136035051Y-80264000I-1796051J0D01*
G01*
X156990051Y-80264000D02*
G75*
G03X156990051Y-80264000I-1796051J0D01*
G01*
X156464000Y-77724000D02*
X132334000Y-77724000D01*
X141581619Y-81986380D02*
X141248285Y-81510190D01*
X141010190Y-81986380D02*
X141010190Y-80986380D01*
X141391142Y-80986380D01*
X141486380Y-81034000D01*
X141534000Y-81081619D01*
X141581619Y-81176857D01*
X141581619Y-81319714D01*
X141534000Y-81414952D01*
X141486380Y-81462571D01*
X141391142Y-81510190D01*
X141010190Y-81510190D01*
X142343523Y-81462571D02*
X142010190Y-81462571D01*
X142010190Y-81986380D02*
X142010190Y-80986380D01*
X142486380Y-80986380D01*
X143581619Y-81700666D02*
X144057809Y-81700666D01*
X143486380Y-81986380D02*
X143819714Y-80986380D01*
X144153047Y-81986380D01*
X144486380Y-81319714D02*
X144486380Y-81986380D01*
X144486380Y-81414952D02*
X144534000Y-81367333D01*
X144629238Y-81319714D01*
X144772095Y-81319714D01*
X144867333Y-81367333D01*
X144914952Y-81462571D01*
X144914952Y-81986380D01*
X145248285Y-81319714D02*
X145629238Y-81319714D01*
X145391142Y-80986380D02*
X145391142Y-81843523D01*
X145438761Y-81938761D01*
X145534000Y-81986380D01*
X145629238Y-81986380D01*
X146343523Y-81938761D02*
X146248285Y-81986380D01*
X146057809Y-81986380D01*
X145962571Y-81938761D01*
X145914952Y-81843523D01*
X145914952Y-81462571D01*
X145962571Y-81367333D01*
X146057809Y-81319714D01*
X146248285Y-81319714D01*
X146343523Y-81367333D01*
X146391142Y-81462571D01*
X146391142Y-81557809D01*
X145914952Y-81653047D01*
X146819714Y-81319714D02*
X146819714Y-81986380D01*
X146819714Y-81414952D02*
X146867333Y-81367333D01*
X146962571Y-81319714D01*
X147105428Y-81319714D01*
X147200666Y-81367333D01*
X147248285Y-81462571D01*
X147248285Y-81986380D01*
X147724476Y-81319714D02*
X147724476Y-81986380D01*
X147724476Y-81414952D02*
X147772095Y-81367333D01*
X147867333Y-81319714D01*
X148010190Y-81319714D01*
X148105428Y-81367333D01*
X148153047Y-81462571D01*
X148153047Y-81986380D01*
X149057809Y-81986380D02*
X149057809Y-81462571D01*
X149010190Y-81367333D01*
X148914952Y-81319714D01*
X148724476Y-81319714D01*
X148629238Y-81367333D01*
X149057809Y-81938761D02*
X148962571Y-81986380D01*
X148724476Y-81986380D01*
X148629238Y-81938761D01*
X148581619Y-81843523D01*
X148581619Y-81748285D01*
X148629238Y-81653047D01*
X148724476Y-81605428D01*
X148962571Y-81605428D01*
X149057809Y-81557809D01*
X134413761Y-119086380D02*
X134747095Y-120086380D01*
X135080428Y-119086380D01*
X135413761Y-120086380D02*
X135413761Y-119086380D01*
X135889952Y-120086380D02*
X135889952Y-119086380D01*
X136461380Y-120086380D01*
X136461380Y-119086380D01*
X134747095Y-108926380D02*
X135366142Y-108926380D01*
X135032809Y-109307333D01*
X135175666Y-109307333D01*
X135270904Y-109354952D01*
X135318523Y-109402571D01*
X135366142Y-109497809D01*
X135366142Y-109735904D01*
X135318523Y-109831142D01*
X135270904Y-109878761D01*
X135175666Y-109926380D01*
X134889952Y-109926380D01*
X134794714Y-109878761D01*
X134747095Y-109831142D01*
X135651857Y-108926380D02*
X135985190Y-109926380D01*
X136318523Y-108926380D01*
X135770904Y-106434000D02*
X135675666Y-106386380D01*
X135532809Y-106386380D01*
X135389952Y-106434000D01*
X135294714Y-106529238D01*
X135247095Y-106624476D01*
X135199476Y-106814952D01*
X135199476Y-106957809D01*
X135247095Y-107148285D01*
X135294714Y-107243523D01*
X135389952Y-107338761D01*
X135532809Y-107386380D01*
X135628047Y-107386380D01*
X135770904Y-107338761D01*
X135818523Y-107291142D01*
X135818523Y-106957809D01*
X135628047Y-106957809D01*
X153162095Y-119086380D02*
X153781142Y-119086380D01*
X153447809Y-119467333D01*
X153590666Y-119467333D01*
X153685904Y-119514952D01*
X153733523Y-119562571D01*
X153781142Y-119657809D01*
X153781142Y-119895904D01*
X153733523Y-119991142D01*
X153685904Y-120038761D01*
X153590666Y-120086380D01*
X153304952Y-120086380D01*
X153209714Y-120038761D01*
X153162095Y-119991142D01*
X154066857Y-119086380D02*
X154400190Y-120086380D01*
X154733523Y-119086380D01*
X154185904Y-116594000D02*
X154090666Y-116546380D01*
X153947809Y-116546380D01*
X153804952Y-116594000D01*
X153709714Y-116689238D01*
X153662095Y-116784476D01*
X153614476Y-116974952D01*
X153614476Y-117117809D01*
X153662095Y-117308285D01*
X153709714Y-117403523D01*
X153804952Y-117498761D01*
X153947809Y-117546380D01*
X154043047Y-117546380D01*
X154185904Y-117498761D01*
X154233523Y-117451142D01*
X154233523Y-117117809D01*
X154043047Y-117117809D01*
M02*
