solid OpenSCAD_Model
  facet normal 0 0 -1
    outer loop
      vertex 23 -10.5 -1
      vertex -23 -10.5 -1
      vertex -23 10.5 -1
    endloop
  endfacet
  facet normal 0 0 -1
    outer loop
      vertex 23 -10.5 -1
      vertex -23 10.5 -1
      vertex 23 10.5 -1
    endloop
  endfacet
  facet normal 0 0 1
    outer loop
      vertex -23 10.5 0.5
      vertex -23 -10.5 0.5
      vertex 23 -10.5 0.5
    endloop
  endfacet
  facet normal 0 0 1
    outer loop
      vertex 23 10.5 0.5
      vertex -23 10.5 0.5
      vertex 23 -10.5 0.5
    endloop
  endfacet
  facet normal 0 -1 0
    outer loop
      vertex 23 -10.5 -1
      vertex -23 -10.5 0.5
      vertex -23 -10.5 -1
    endloop
  endfacet
  facet normal 0 -1 0
    outer loop
      vertex 23 -10.5 -1
      vertex 23 -10.5 0.5
      vertex -23 -10.5 0.5
    endloop
  endfacet
  facet normal 1 0 0
    outer loop
      vertex 23 10.5 -1
      vertex 23 -10.5 0.5
      vertex 23 -10.5 -1
    endloop
  endfacet
  facet normal 1 0 -0
    outer loop
      vertex 23 10.5 -1
      vertex 23 10.5 0.5
      vertex 23 -10.5 0.5
    endloop
  endfacet
  facet normal 0 1 0
    outer loop
      vertex -23 10.5 -1
      vertex 23 10.5 0.5
      vertex 23 10.5 -1
    endloop
  endfacet
  facet normal 0 1 0
    outer loop
      vertex -23 10.5 -1
      vertex -23 10.5 0.5
      vertex 23 10.5 0.5
    endloop
  endfacet
  facet normal -1 0 0
    outer loop
      vertex -23 -10.5 -1
      vertex -23 10.5 0.5
      vertex -23 10.5 -1
    endloop
  endfacet
  facet normal -1 0 0
    outer loop
      vertex -23 -10.5 -1
      vertex -23 -10.5 0.5
      vertex -23 10.5 0.5
    endloop
  endfacet
endsolid OpenSCAD_Model
